<?xml version="1.0" standalone="no"?>
<!DOCTYPE svg PUBLIC "-//W3C//DTD SVG 1.1//EN" "http://www.w3.org/Graphics/SVG/1.1/DTD/svg11.dtd">
<svg xmlns="http://www.w3.org/2000/svg">
<metadata>Generated by Fontastic.me</metadata>
<defs>
<font id="line" horiz-adv-x="512">
<font-face font-family="line" units-per-em="512" ascent="480" descent="-32"/>
<missing-glyph horiz-adv-x="512" />

<glyph unicode="&#57344;" d="M370 118c6 0 10 4 10 10 0 6-4 10-10 10l-204 0c-6 0-11-4-11-10 0-6 5-10 11-10z m62 92c0 6-5 10-10 10l-308 0c-5 0-10-4-10-10 0-6 5-10 10-10l308 0c5 0 10 4 10 10z m-328 164c0-6 5-10 10-10l308 0c5 0 10 4 10 10 0 5-5 10-10 10l-308 0c-5 0-10-5-10-10z m266-92c6 0 10 4 10 10 0 6-4 10-10 10l-204 0c-6 0-11-4-11-10 0-6 5-10 11-10z"/>
<glyph unicode="&#57345;" d="M416 138l-204 0c-6 0-10-4-10-10 0-6 4-10 10-10l204 0c6 0 11 4 11 10 0 6-5 10-11 10z m11 72c0 6-5 10-11 10l-307 0c-5 0-10-4-10-10 0-6 5-10 10-10l307 0c6 0 11 4 11 10z m-11 174l-307 0c-5 0-10-5-10-10 0-6 5-10 10-10l307 0c6 0 11 4 11 10 0 5-5 10-11 10z m0-82l-204 0c-6 0-10-4-10-10 0-6 4-10 10-10l204 0c6 0 11 4 11 10 0 6-5 10-11 10z"/>
<glyph unicode="&#57346;" d="M159 94c2-2 5-3 8-3 2 0 5 1 7 3l153 153c4 4 4 11 0 15l-153 154c-4 4-11 4-15 0-4-4-4-11 0-15l147-146-147-147c-4-4-4-10 0-14z"/>
<glyph unicode="&#57347;" d="M409 310c0 5-5 10-11 10l-289 0c-6 0-10-5-10-10l0-123c0-6 4-10 10-10l289 0c6 0 11 4 11 10l0 22 7 0c6 0 10 5 10 10l0 55c0 6-4 10-10 10l-7 0z m-21-113l-269 0 0 102 269 0z m-237 10c5 0 10 5 10 11l0 61c0 6-5 10-10 10-6 0-10-4-10-10l0-61c0-6 4-11 10-11z m41 0c6 0 10 5 10 11l0 61c0 6-4 10-10 10-6 0-10-4-10-10l0-61c0-6 4-11 10-11z m41 0c6 0 10 5 10 11l0 61c0 6-4 10-10 10-6 0-10-4-10-10l0-61c0-6 4-11 10-11z m41 0c6 0 10 5 10 11l0 61c0 6-4 10-10 10-6 0-10-4-10-10l0-61c0-6 4-11 10-11z"/>
<glyph unicode="&#57348;" d="M307 133c-6 0-11-4-11-10 0-9-8-17-19-17-11 0-20 8-20 17 0 6-4 10-10 10-5 0-10-4-10-10 0-21 18-38 40-38 22 0 40 17 40 38 0 6-5 10-10 10z m72 104l-16 0 0 39c0 40-33 73-76 78l0 8c10 4 18 13 18 25 0 14-13 26-28 26-15 0-28-12-28-26 0-12 7-21 18-25l0-8c-42-5-76-38-77-78 0 0 0-25 0-39l-15 0c-6 0-11-5-11-10 0-48 17-76 45-76l136 0c45 0 45 57 45 76 0 5-5 10-11 10z m-102 156c4 0 7-3 7-6 0-4-3-6-7-6-4 0-7 2-7 6 0 3 3 6 7 6z m-66-117c1 32 30 58 66 58 36 0 66-26 66-58l0-39-132 0c0 14 0 38 0 39z m134-104l-136 0c-18 0-23 28-24 44l184 0c-1-31-9-44-24-44z"/>
<glyph unicode="&#57349;" d="M369 99c5 0 10 5 10 11l0 251c0 1 0 1 0 1 0 1 0 2-1 3 0 0 0 0 0 1-1 1-1 2-2 3 0 0 0 0 0 0 0 0 0 0 0 0l-57 55c0 1-1 2-2 2-1 0-1 0-1 0-1 1-2 1-3 1 0 0 0 0-1 0l-169 0c-5 0-10-5-10-10l0-307c0-6 5-11 10-11z m-46 293l21-20-21 0z m-169 15l148 0 0-46c0-5 5-10 10-10l46 0 0-231-204 0z m176-146l-142 0c-6 0-11-4-11-10 0-5 5-10 11-10l142 0c5 0 10 5 10 10 0 6-5 10-10 10z m0 43l-142 0c-6 0-11-4-11-10 0-5 5-10 11-10l142 0c5 0 10 5 10 10 0 6-5 10-10 10z m0-86l-142 0c-6 0-11-4-11-10 0-5 5-10 11-10l142 0c5 0 10 5 10 10 0 6-5 10-10 10z m0-43l-142 0c-6 0-11-4-11-10 0-5 5-10 11-10l142 0c5 0 10 5 10 10 0 6-5 10-10 10z"/>
<glyph unicode="&#57350;" d="M353 325c3 2 4 5 4 8 0 4-2 7-4 9l-103 68c-3 3-7 3-10 1-4-2-6-5-6-9l0-135-11-7-75 53c-5 3-11 2-14-3-3-4-2-11 2-14l69-49-69-48c-4-3-5-10-2-14 3-5 9-6 14-3l75 53 11-8 0-132c0-4 2-7 6-9 1-1 3-2 5-2 1 0 3 1 5 2l102 65c3 2 5 5 5 8 0 4-1 7-4 9l-98 69 0 20z m-98 58l74-50-74-51z m74-223l-74-47 0 99z"/>
<glyph unicode="&#57351;" d="M121 108l307 0c6 0 11 4 11 10l0 246c0 5-5 10-11 10l-307 0c-5 0-10-5-10-10l0-246c0-6 5-10 10-10z m10 20l0 152 287 0 0-152z m287 226l0-53-287 0 0 53z m-244-27c0-5-4-9-9-9-6 0-10 4-10 9 0 5 4 9 10 9 5 0 9-4 9-9z m36 0c0-5-4-9-9-9-5 0-9 4-9 9 0 5 4 9 9 9 5 0 9-4 9-9z m37 0c0-5-4-9-10-9-5 0-9 4-9 9 0 5 4 9 9 9 6 0 10-4 10-9z"/>
<glyph unicode="&#57352;" d="M365 317l-7 43c-1 5-6 9-11 9l-133 0c-5 0-9-4-10-9l-7-43-70 0c-5 0-10-5-10-10l0-174c0-5 5-10 10-10l308 0c5 0 10 5 10 10l0 174c0 5-5 10-10 10z m59-174l-286 0 0 153 68 0c5 0 9 4 10 9l7 43 116 0 7-43c1-5 5-9 10-9l68 0z m-143 150c-34 0-62-27-62-61 0-34 28-61 62-61 34 0 61 27 61 61 0 34-27 61-61 61z m0-101c-23 0-41 18-41 40 0 22 18 41 41 41 22 0 41-19 41-41 0-22-19-40-41-40z"/>
<glyph unicode="&#57353;" d="M429 380l-61-12c-5-1-8-5-8-10l0-41-236 0c-4 0-7-3-9-6-2-3-1-7 1-10l56-83c2-3 5-4 9-4l167 0 0-23-142 0c0 0 0 0 0 0-1 0-1 0-1 0-18 0-33-15-33-34 0-18 15-33 33-33 18 0 32 15 32 33 0 5-1 9-2 13l84 0c-2-4-3-8-3-13 0-18 15-33 33-33 18 0 33 15 33 33 0 12-6 21-14 27l0 30 2 0c6 0 10 4 10 10l0 82c0 1 0 1 0 1 0 0 0 1 0 1l0 41 53 11c6 1 10 6 8 12-1 5-6 9-12 8z m-224-236c-7 0-12 6-12 13 0 8 5 13 12 13 6 0 12-5 12-13 0-7-6-13-12-13z m144 0c-7 0-12 6-12 13 0 8 5 13 12 13 7 0 12-5 12-13 0-7-5-13-12-13z m-205 152l216 0 0-62-174 0z"/>
<glyph unicode="&#57354;" d="M159 167c1-1 1-1 1-2 1-5-5-16-10-23-2-2-3-6-1-9 1-4 4-6 7-7 3 0 6-1 8-1 16 0 28 10 35 16 1 2 3 3 4 4 15-3 39-6 53-6 8 0 17 1 25 2 12-4 25-6 39-6 10 0 24 1 35 3 0 0 1-1 1-1 5-4 14-12 26-12 1 0 4 0 6 1 3 1 6 3 7 6 1 4 1 7-1 10-3 4-6 9-6 12 25 16 40 41 40 68 0 17-6 32-16 45-1 69-71 125-156 125-86 0-156-57-156-127 0-39 22-76 59-98z m217 4c-4-3-7-7-8-13-1-1-1-2-1-3-3 2-6 4-11 4-1 0-2 0-3 0-9-2-24-4-33-4-48 0-87 30-87 67 0 37 39 67 87 67 48 0 87-30 87-67 0-20-11-39-31-51z m-120 200c64 0 118-34 132-81-19 12-42 20-68 20-59 0-107-40-107-88 0-24 12-46 31-62-13 1-28 3-38 6-8 2-15-4-21-9-2-2-5-4-7-6 2 6 3 12 2 18-1 6-5 12-10 15-31 19-49 50-49 81 0 59 60 106 135 106z"/>
<glyph unicode="&#57355;" d="M412 362l-197-197-95 95c-4 4-11 4-15 0-4-4-4-11 0-15l103-102c2-2 4-3 7-3 2 0 5 1 7 3l205 205c4 4 4 10 0 14-4 4-11 4-15 0z"/>
<glyph unicode="&#57356;" d="M249 91c90 0 163 73 163 164 0 90-73 163-163 163-91 0-164-73-164-163 0-91 73-164 164-164z m0 307c79 0 143-64 143-143 0-79-64-144-143-144-79 0-144 65-144 144 0 79 65 143 144 143z m55-214c2-2 5-3 8-3 2 0 5 1 7 3 4 4 4 11 0 15l-60 60 0 110c0 6-5 11-10 11-6 0-11-5-11-11l0-114c0-3 1-6 3-8z"/>
<glyph unicode="&#57357;" d="M92 94c2-2 5-3 8-3 2 0 5 1 7 3l146 146 147-146c2-2 4-3 7-3 2 0 5 1 7 3 4 4 4 10 0 14l-146 147 146 146c4 4 4 11 0 15-4 4-10 4-14 0l-147-147-146 147c-4 4-11 4-15 0-4-4-4-11 0-15l147-146-147-147c-4-4-4-10 0-14z"/>
<glyph unicode="&#57358;" d="M374 420c-31 0-56-22-61-52l-155 0c-4 0-8-3-9-6-2-4-1-9 2-12l110-111 0-126-26 0c-5 0-10-4-10-10 0-6 5-10 10-10l72 0c5 0 10 4 10 10 0 6-5 10-10 10l-26 0 0 126 64 65c9-5 19-7 29-7 33 0 61 27 61 62 0 34-28 61-61 61z m-15-73l-88-90-88 90z m15-30c-5 0-9 1-13 2l30 31c3 3 4 8 2 12-1 3-5 6-9 6l-50 0c4 18 20 32 40 32 22 0 40-19 40-41 0-23-18-42-40-42z"/>
<glyph unicode="&#57359;" d="M243 90c91 0 164 73 164 164 0 90-73 163-164 163-90 0-164-73-164-163 0-91 74-164 164-164z m0 307c79 0 144-64 144-143 0-79-65-144-144-144-79 0-143 65-143 144 0 79 64 143 143 143z m-71-225c1 0 3 0 4 1l96 47c2 1 4 2 5 4l47 97c2 4 1 8-2 12-3 3-8 3-12 2l-96-48c-2-1-4-2-5-4l-47-97c-2-3-1-8 2-11 2-2 5-3 8-3z m54 99l67 32-33-66-66-33z"/>
<glyph unicode="&#57360;" d="M93 95l43 0c6 0 11 4 11 10l0 75c0 5-5 10-11 10l-43 0c-6 0-11-5-11-10l0-75c0-6 5-10 11-10z m10 74l23 0 0-54-23 0z m243 243l0-307c0-6 4-10 10-10l44 0c5 0 10 4 10 10l0 307c0 6-5 10-10 10l-44 0c-6 0-10-4-10-10z m20-10l24 0 0-287-24 0z m-142-145l-44 0c-5 0-10-5-10-10l0-144c0-5 5-10 10-10l44 0c6 0 10 5 10 10l0 144c0 5-4 10-10 10z m-10-143l-23 0 0 122 23 0z m44 201l0-212c0-5 4-10 10-10l44 0c6 0 10 5 10 10l0 212c0 5-4 10-10 10l-44 0c-6 0-10-5-10-10z m20-11l24 0 0-190-24 0z"/>
<glyph unicode="&#57361;" d="M360 113c0 1 1 2 1 3l0 89c0 15-13 27-28 27l-2 0c-3 0-6 0-8-1-4 11-14 19-27 19l-2 0c-3 0-5 0-8-1-3 12-14 20-27 20l-2 0c-2 0-5 0-7-1l0 46c0 15-12 27-28 27l-2 0c-15 0-27-12-27-27l0-126-12 11c-10 10-28 10-39 0l-1-2c-5-5-8-12-8-19 0-7 3-14 7-19l54-59c5-5 11-8 19-8l123 0c13 0 23 9 24 21z m-150 0l-55 60c-1 1-2 3-2 5 0 2 1 3 2 5l2 1c1 1 3 2 5 2 2 0 4-1 5-2l29-28c3-3 7-4 11-2 4 1 6 5 6 9l0 151c0 4 3 7 7 7l2 0c4 0 8-3 8-7l0-70c0-5 4-9 9-10 5 0 10 4 11 9 1 3 4 6 7 6l2 0c4 0 7-3 7-7l0-16c0-6 5-10 10-10 5-1 10 3 11 8 0 3 3 6 7 6l2 0c4 0 7-3 7-7l0-15c0-6 4-10 10-11 5 0 10 4 11 9 0 3 3 6 7 6l2 0c4 0 7-3 7-7l0-88c0 0 0-1 0-2 0-2-2-3-4-3l-123 0c-2 0-3 0-3 1z m-95 211c0-5 4-10 10-10l34 0c6 0 11 5 11 10 0 6-5 11-11 11l-34 0c-6 0-10-5-10-11z m117 52l0 33c0 6-5 10-10 10-6 0-10-4-10-10l0-33c0-6 4-11 10-11 5 0 10 5 10 11z m-48-28c0 0 0 0 0 0 5 0 10 5 10 10 0 4-2 7-4 9l-23 22c-5 4-11 4-15 0-4-4-4-11 0-15l24-23c2-2 5-3 8-3z m89-24c0-5 5-10 10-10l35 0c5 0 10 5 10 10 0 6-5 11-10 11l-35 0c-5 0-10-5-10-11z m3 65l-24-23c-4-4-4-11 0-15 2-2 4-3 7-3 3 0 5 1 7 3l24 23c5 4 5 11 1 15-4 4-11 4-15 0z"/>
<glyph unicode="&#57362;" d="M423 409l-307 0c-6 0-10-4-10-10l0-235c0-5 4-10 10-10l143 0 0-31-65 0c-5 0-10-5-10-11 0-5 5-10 10-10l151 0c5 0 10 5 10 10 0 6-5 11-10 11l-65 0 0 31 143 0c6 0 10 5 10 10l0 235c0 6-4 10-10 10z m-10-20l0-144-287 0 0 144z m-287-214l0 50 287 0 0-50z m153 24c0 5-4 9-9 9-6 0-10-4-10-9 0-6 4-10 10-10 5 0 9 4 9 10z"/>
<glyph unicode="&#57363;" d="M113 174c-6 0-11-4-11-10l0-63c0-6 5-10 11-10l286 0c6 0 11 4 11 10l0 63c0 6-5 10-11 10-5 0-10-4-10-10l0-53-266 0 0 53c0 6-5 10-10 10z m143 245c-6 0-10-5-10-11l0-220-65 63c-4 4-11 4-15 0-4-5-3-11 1-15l82-79c0 0 0 0 0 0l0 0c0-1 1-1 1-1 1-1 1-1 2-2 1 0 3 0 4 0 1 0 3 0 4 0 1 1 1 1 2 2 0 0 1 0 1 1l82 79c4 4 5 10 1 15-4 4-11 4-15 0l-65-63 0 220c0 6-4 11-10 11z"/>
<glyph unicode="&#57364;" d="M243 96c68 0 123 53 123 119 0 21-6 43-18 61l-96 143c-2 3-5 5-9 5-3 0-6-2-8-5l-97-143c-11-18-17-40-17-61 0-66 55-119 122-119z m-88 169l88 130 88-130c10-15 15-32 15-50 0-54-46-98-102-98-57 0-103 44-103 98 0 17 5 35 14 50z"/>
<glyph unicode="&#57365;" d="M369 99c5 0 10 5 10 11l0 251c0 1 0 1 0 1 0 1 0 2-1 3 0 0 0 0 0 1-1 1-1 2-2 3 0 0 0 0 0 0 0 0 0 0 0 0l-57 55c0 1-1 2-2 2-1 0-1 0-1 0-1 1-2 1-3 1 0 0 0 0-1 0l-169 0c-5 0-10-5-10-10l0-307c0-6 5-11 10-11z m-46 293l21-20-21 0z m-169 15l148 0 0-46c0-5 5-10 10-10l46 0 0-231-204 0z"/>
<glyph unicode="&#57366;" d="M366 84c1 0 2 1 3 1 4 1 7 5 7 10l0 307c0 6-4 10-10 10l-205 0c-5 0-10-4-10-10l0-307c0-5 3-9 7-10 5-1 9 0 12 4l94 141 94-141c1-3 5-5 8-5z m-10 45l-84 125c-2 3-5 5-8 5-4 0-7-2-9-5l-83-125 0 263 184 0z"/>
<glyph unicode="&#57367;" d="M88 163c2-1 4-1 6-1 1 0 3 0 5 1l139 84 0-78c0-3 2-7 6-9 1 0 3-1 5-1 1 0 3 1 5 2l152 90c3 2 5 5 5 9 0 4-2 7-5 9l-152 91c-3 1-7 1-10 0-4-2-6-6-6-9l0-72-139 83c-3 2-7 2-11 1-3-2-5-6-5-9l0-182c0-3 2-7 5-9z m171 170l122-73-122-73z m-155 3l122-73-122-73z"/>
<glyph unicode="&#57368;" d="M120 94c2-1 4-2 5-2 2 0 4 1 6 2l230 144 0-138c0-6 5-10 10-10 6 0 10 4 10 10l0 307c0 6-4 11-10 11-5 0-10-5-10-11l0-138-230 145c-3 2-7 2-11 0-3-2-5-5-5-9l0-302c0-4 2-8 5-9z m16 292l211-132-211-133z"/>
<glyph unicode="&#57369;" d="M430 325l-87 0c11 11 17 26 17 39 0 9-3 17-9 23-6 6-15 9-24 9-14 0-29-7-41-18-4-4-7-7-9-11-3 4-6 7-9 11-12 11-27 18-41 18-10 0-18-3-24-9-6-6-9-14-9-23 0-13 6-28 17-39l-88 0c-5 0-10-5-10-10l0-72c0-5 5-10 10-10l17 0 0-113c0-6 4-10 10-10l254 0c6 0 10 4 10 10l0 113 16 0c6 0 11 5 11 10l0 72c0 5-5 10-11 10z m-196-71l0 51 86 0 0-51z m86-21l0-103-86 0 0 103z m7 143c3 0 7-1 9-3 2-2 4-5 4-9 0-8-5-18-13-26-8-8-19-13-27-13-3 0-7 1-10 3-2 2-3 5-3 9 0 8 5 18 13 26 8 8 18 13 27 13z m-110-3c3 2 7 3 10 3 8 0 19-5 27-13 8-8 13-18 13-26 0-4-1-7-4-9-2-2-6-3-9-3-8 0-19 5-27 13-8 8-13 18-13 26 0 4 1 7 3 9z m-83-68l80 0 0-51-80 0z m26-72l54 0 0-103-54 0z m234-103l-54 0 0 103 54 0z m26 124l-80 0 0 51 80 0 0-51z"/>
<glyph unicode="&#57370;" d="M436 341c-17 0-30-13-30-30 0-4 1-7 2-11l-87-81c-5 3-10 5-17 5-3 0-6-1-8-2l-28 36c2 4 3 8 3 13 0 16-13 29-30 29-16 0-29-13-29-29 0-2 0-3 0-4l-70-56c-5 3-10 5-16 5-16 0-30-13-30-30 0-16 14-29 30-29 16 0 29 13 29 29 0 3 0 6-1 9l68 53c0 0 1 0 1 0 5-4 12-7 18-7 4 0 8 1 12 3l26-34c-2-5-4-10-4-16 0-16 13-29 29-29 17 0 30 13 30 29 0 3 0 5-1 8l89 83c4-2 9-3 14-3 16 0 29 13 29 29 0 17-13 30-29 30z m-310-164c-5 0-9 4-9 9 0 5 4 9 9 9 5 0 9-4 9-9 0-5-4-9-9-9z m110 87c-3 2-4 4-4 7 0 5 4 9 9 9 5 0 9-4 9-9 0-3-1-5-2-7 0 0 0 0 0 0 0 0 0 0 0 0-4-3-10-2-12 0z m68-79c-5 0-9 4-9 9 0 3 2 6 4 7 0 0 0 0 0 0 0 0 0 0 0 0 1 1 3 2 5 2 5 0 10-4 10-9 0-5-5-9-10-9z m132 117c-5 0-9 4-9 9 0 5 4 9 9 9 5 0 9-4 9-9 0-5-4-9-9-9z"/>
<glyph unicode="&#57371;" d="M90 261l132 0c6 0 10 5 10 11l0 132c0 5-4 10-10 10l-132 0c-6 0-10-5-10-10l0-132c0-6 4-11 10-11z m10 133l112 0 0-112-112 0z m165-133l132 0c6 0 10 5 10 11l0 132c0 5-4 10-10 10l-132 0c-6 0-10-5-10-10l0-132c0-6 4-11 10-11z m10 133l112 0 0-112-112 0z m-185-308l132 0c6 0 10 5 10 11l0 132c0 6-4 10-10 10l-132 0c-6 0-10-4-10-10l0-132c0-6 4-11 10-11z m10 133l112 0 0-112-112 0z m155-122c0-6 4-11 10-11l132 0c6 0 10 5 10 11l0 132c0 6-4 10-10 10l-132 0c-6 0-10-4-10-10z m20 122l112 0 0-112-112 0z"/>
<glyph unicode="&#57372;" d="M89 358l307 0c6 0 10 5 10 11 0 5-4 10-10 10l-307 0c-6 0-10-5-10-10 0-6 4-11 10-11z m0-225l307 0c6 0 10 5 10 10 0 6-4 11-10 11l-307 0c-6 0-10-5-10-11 0-5 4-10 10-10z m0 113l307 0c6 0 10 4 10 10 0 6-4 10-10 10l-307 0c-6 0-10-4-10-10 0-6 4-10 10-10z"/>
<glyph unicode="&#57373;" d="M378 264l-18 0c-7 58-53 104-109 104-56 0-102-46-109-104l-18 0c-20 0-37-17-37-39l0-43c0-22 17-39 37-39l27 0c3 0 5 1 7 3 2 1 3 4 3 7l0 29 0 17c0 0 0 0 0 0 0 1 0 51 0 52 1 53 41 96 90 96 49 0 89-43 90-96 0-1 0-25 0-40 0-7 0-11 0-12l0-46c0-6 4-10 10-10l27 0c20 0 37 17 37 39l0 43c0 22-17 39-37 39z m-254-101c-9 0-16 8-16 19l0 43c0 10 7 19 16 19l17 0 0-19 0-62z m270 19c0-11-7-19-16-19l-17 0 0 36c0 1 0 6 0 12l0 33 17 0c9 0 16-9 16-19l0-43z"/>
<glyph unicode="&#57374;" d="M236 110c2-2 4-4 7-4l0 0c3 0 6 2 8 4l135 151c14 17 21 38 21 59 0 52-43 94-96 94-26 0-50-10-68-28-18 18-42 28-68 28-53 0-96-42-96-94 0-21 8-42 22-59 1-2 103-116 135-151z m-61 283c24 0 46-10 60-29 4-5 12-5 16 0 15 19 37 29 60 29 42 0 76-33 76-73 0-17-6-33-17-46l-127-142c-46 52-124 139-127 142-10 13-16 29-16 46 0 40 34 73 75 73z"/>
<glyph unicode="&#57375;" d="M413 272l-153 112c-4 3-9 3-12 0l-154-112c-5-3-6-9-2-14 3-5 9-5 14-2l20 15 0-141c0-6 5-10 10-10l83 0c6 0 10 4 10 10l0 96 49 0 0-96c0-6 4-10 10-10l83 0c5 0 10 4 10 10l0 141 20-15c2-2 4-2 6-2 3 0 6 1 8 4 4 5 3 11-2 14z m-53-132l-62 0 0 96c0 6-4 11-10 11l-69 0c-6 0-10-5-10-11l0-96-62 0 0 145 107 78 106-78 0-145z"/>
<glyph unicode="&#57376;" d="M247 276c-24 8-50 2-68-15-1-2-8-8-13-13 0 0 0 0 0 0-43-43-43-44-43-44-25-25-25-66 0-91 13-12 29-19 46-19 16 0 33 7 46 19 33 34 41 41 43 43l13 14c18 17 23 43 15 67-2 5-8 8-13 6-6-2-8-8-6-13 5-16 1-34-10-46l-19-19c0 0 0 0 0 0-12-11-35-35-38-38-17-16-45-16-62 1-17 17-17 45-1 62 1 1 44 43 44 43 0 0 0 0 0 0 5 5 11 12 13 13 12 12 30 16 46 11 5-2 11 0 13 6 2 5-1 11-6 13z m64-39c17 0 34 6 46 18l13 13 6 6 38 38c24 25 24 66-1 91-25 25-66 25-91 1 0-1 0-1-44-44 0 0 0 0 0 0l-13-13c-17-18-23-44-15-67 2-5 6-7 10-7 1 0 2 0 3 0 6 2 9 8 7 14-6 16-2 33 10 45l19 19c11 12 36 37 37 38 17 17 45 17 63 0 17-18 17-45 0-63l-38-37-5-6-14-13c-12-12-30-16-45-10-6 2-12-1-14-7-1-5 1-11 7-13 7-2 14-3 21-3z m-103-39c2-2 5-3 7-3 3 0 5 1 7 3l106 106c4 4 4 10 0 14-4 4-10 4-14 0l-106-106c-4-4-4-10 0-14z"/>
<glyph unicode="&#57377;" d="M100 118l308 0c6 0 10 4 10 10 0 6-4 10-10 10l-308 0c-6 0-11-4-11-10 0-6 5-10 11-10z m0 82l307 0c5 0 10 4 10 10 0 6-5 10-10 10l-307 0c-6 0-11-4-11-10 0-6 5-10 11-10z m307 184l-307 0c-6 0-11-5-11-10 0-6 5-10 11-10l307 0c5 0 10 4 10 10 0 5-5 10-10 10z m1-82l-308 0c-6 0-11-4-11-10 0-6 5-10 11-10l308 0c6 0 10 4 10 10 0 6-4 10-10 10z"/>
<glyph unicode="&#57378;" d="M145 200c26 0 49 20 54 46l148 0 0-27c0-6 5-11 10-11 6 0 10 5 10 11l0 27 30 0 0-44c0-5 4-10 10-10 6 0 10 5 10 10l0 55c0 5-4 10-10 10l-208 0c-4 27-27 48-54 48-31 0-55-26-55-58 0-31 24-57 55-57z m0 94c19 0 34-16 34-37 0-20-15-37-34-37-19 0-35 17-35 37 0 21 16 37 35 37z"/>
<glyph unicode="&#57379;" d="M255 415c-2 2-5 3-7 3l-133 0c-6 0-10-4-10-10l-1-133c0-3 1-6 3-8l174-174c2-1 5-3 8-3 2 0 5 2 7 3l133 134c4 4 4 10 0 14z m34-300l-164 164 0 119 118 0 164-164z m-54 199c0-15-12-27-26-27-15 0-27 12-27 27 0 15 12 27 27 27 14 0 26-12 26-27z"/>
<glyph unicode="&#57380;" d="M256 151c-3 5-10 6-14 2-8-6-12-14-12-24 0-5 1-11 5-16l19-27c2-2 5-4 9-4 3 0 6 2 8 4l20 27c3 5 5 11 5 16 0 10-5 19-13 25-5 3-11 2-14-3-4-4-3-11 2-14 3-2 4-5 4-8 0-1 0-3-1-4l-11-15-12 15c-1 1-1 3-1 4 0 3 1 6 4 8 5 3 6 10 2 14z m72-1c1-2 4-3 6-3 2 0 3 1 5 1 3 2 6 6 6 10l0 65c0 3-2 6-4 8l-37 32 0 95c0 2 0 4-2 6l-31 42c-4 5-13 5-17 0l-31-42c-1-2-2-4-2-6l0-95-37-32c-2-2-3-5-3-8l0-65c0-4 2-8 6-10 1 0 3-1 4-1 2 0 5 1 7 3l27 24c2-1 4-2 6-2l63 0c2 0 5 1 6 2z m-4 30l-20 18 0 38 20-17z m-61 202l21-28 0-86-43 0 0 86z m-62-163l20 17 0-38-20-18z m40-27l0 55 43 0 0-55z"/>
<glyph unicode="&#57381;" d="M148 96l225 0c6 0 10 5 10 11l0 175c0 5-4 10-10 10l-5 0c0 11 0 25 0 26 0 58-49 106-108 106-59 0-107-48-107-107l0-25-5 0c-6 0-11-5-11-10l0-175c0-6 5-11 11-11z m215 21l-205 0 0 155 205 0z m-190 200c0 48 40 87 87 87 48 0 87-39 88-86 0-1 0-16 0-26l-175 0z m65-166c0-6 5-10 10-10l24 0c6 0 11 4 11 10l0 33c8 7 13 17 13 28 0 19-16 35-36 35-19 0-35-16-35-35 0-11 5-21 13-28z m22 76c9 0 16-7 16-15 0-6-4-11-8-13-4-2-6-6-6-9l0-29-3 0 0 29c0 3-3 7-6 9-5 2-8 7-8 13 0 8 7 15 15 15z"/>
<glyph unicode="&#57382;" d="M238 151c0-6 5-10 10-10l24 0c6 0 11 4 11 10l0 33c8 7 13 17 13 28 0 19-16 35-36 35-19 0-35-16-35-35 0-11 5-21 13-28z m22 76c9 0 16-7 16-15 0-6-4-11-8-13-4-2-6-6-6-9l0-29-3 0 0 29c0 3-3 7-6 9-5 2-8 7-8 13 0 8 7 15 15 15z m-112-131l225 0c6 0 10 5 10 11l0 173c0 6-4 10-10 10l-204 0c-10 31-3 65 21 88 34 34 89 34 123 1 1-1 25-25 25-25l15 15c0 0-26 25-26 25-42 40-110 40-151-1-28-27-38-66-28-103-6 0-11-4-11-10l0-173c0-6 5-11 11-11z m215 21l-205 0 0 153 205 0z"/>
<glyph unicode="&#57383;" d="M436 237c4 4 4 10 0 14l-48 48c-2 2-5 3-7 3-3 0-6-1-8-3l-102-102c-8-8-18-12-29-12-10 0-19 4-25 10-14 14-13 39 2 55 1 0 35 34 64 63 19 19 36 36 38 39 4 4 4 10 0 14l-48 48c-2 2-4 3-7 3 0 0 0 0 0 0-3 0-5-1-7-3-1 0-18-18-39-39 0 0-1 0-1-1-30-30-67-67-67-67-52-53-54-135-6-183 22-22 53-35 86-35 35 0 70 15 96 40 1 1 107 107 108 108z m-170 155l33-33c-8-9-16-17-24-24l-33 33c10 10 18 19 24 24z m48-248c-23-22-52-34-82-34-28 0-53 10-72 29-40 40-37 109 6 153 1 1 33 33 61 62l34-34c-56-56-56-56-56-56-24-24-25-61-3-83 11-11 25-17 40-17 16 0 31 7 44 19l56 56 33-33c-28-29-60-61-61-62z m76 76l-34 34 25 24 33-34c-6-5-14-14-24-24z"/>
<glyph unicode="&#57384;" d="M212 178c30 0 58 10 80 29l108-108c2-2 5-3 7-3 3 0 5 1 7 3 4 4 4 11 0 15l-108 108c41 48 38 121-7 166-23 23-54 36-87 36-32 0-63-13-86-36-48-48-48-126 0-174 23-23 54-36 86-36z m-72 195c19 20 45 31 72 31 28 0 53-11 73-31 40-39 40-105 0-145-20-19-45-30-73-30-27 0-53 11-72 30-40 40-40 106 0 145z"/>
<glyph unicode="&#57385;" d="M214 185c28 0 55 10 77 28l11-11-4-4c-2-2-3-4-3-7 0-3 1-5 3-7l85-85c2-2 4-3 7-3 2 0 5 1 7 3l23 23c2 2 3 4 3 7 0 3-1 6-3 7l-85 85c-4 4-10 4-14 0l-5-4-11 10c18 22 29 49 29 78 0 32-13 61-35 84-23 23-53 35-85 35-32 0-62-12-84-35-23-23-35-52-35-84 0-32 12-62 35-85 22-22 52-35 84-35z m184-56l-8-8-70 70 8 8z m-254 246c19 18 44 28 70 28 27 0 51-10 70-28 19-19 29-44 29-70 0-27-10-52-29-70-19-19-43-29-70-29-26 0-51 10-70 29-18 18-29 43-29 70 0 26 11 51 29 70z"/>
<glyph unicode="&#57386;" d="M227 166c30 0 58 10 80 29l108-108c2-2 4-3 7-3 2 0 5 1 7 3 4 4 4 11 0 15l-108 108c41 48 38 120-7 166-23 23-54 36-87 36-33 0-63-13-87-36-47-48-47-126 0-174 24-23 54-36 87-36z m-72 195c19 20 45 30 72 30 27 0 53-10 72-30 40-40 40-105 0-145-19-19-45-30-72-30-27 0-53 11-72 30-40 40-40 105 0 145z m24-83l100 0c6 0 10 5 10 11 0 5-4 10-10 10l-100 0c-6 0-10-5-10-10 0-6 4-11 10-11z"/>
<glyph unicode="&#57387;" d="M235 166c30 0 57 10 80 29l108-108c2-2 4-3 7-3 2 0 5 1 7 3 4 4 4 11 0 15l-108 108c40 48 38 120-7 166-23 23-54 36-87 36-33 0-64-13-87-36-48-48-48-126 0-174 23-23 54-36 87-36z m-72 195c19 20 45 30 72 30 27 0 53-10 72-30 40-40 40-105 0-145-19-19-45-30-72-30-27 0-53 11-72 30-40 40-40 105 0 145z m26-82l39 0 0-39c0-5 4-10 10-10 6 0 10 5 10 10l0 39 39 0c5 0 10 4 10 10 0 6-5 10-10 10l-39 0 0 39c0 5-4 10-10 10-6 0-10-5-10-10l0-39-39 0c-5 0-10-4-10-10 0-6 5-10 10-10z"/>
<glyph unicode="&#57388;" d="M428 166l0 185c0 5-4 9-9 10 0 0 0 0 0 0-1 0-1 0-1 0l-307 0c-1 0-1 0-1 0-1 0-2-1-2-1-1 0-2 0-2 0-1-1-1-1-2-1 0-1-1-1-1-2 0 0-1 0-1-1 0 0 0 0 0 0-1-1-1-2-1-2 0-1 0-2 0-2 0-1-1-1-1-1l0-185c0-5 5-10 11-10l307 0c5 0 10 5 10 10z m-44 174l-120-83-121 83z m-263-163l0 154 137-94c2-2 4-2 6-2 2 0 4 0 6 2l138 95 0-155z"/>
<glyph unicode="&#57389;" d="M109 108c1 0 2 0 3 0l100 24 100-24c1 0 1 0 2 0 1 0 2 0 3 0l102 25c5 1 8 5 8 10l0 241c0 3-2 6-4 8-3 2-6 3-9 2l-100-24-100 24c0 0 0 0 0 0-1 0-1 0-2 0-1 0-2 0-2 0 0 0-1 0-1 0l-102-25c-5-1-8-5-8-10l0-241c0-3 2-6 4-8 2-1 4-2 6-2z m297 43l-82-20 0 220 82 20z m-102-20l-82 20 0 220 82-20z m-184 220l82 20 0-220-82-20z"/>
<glyph unicode="&#57390;" d="M250 101c2-3 5-5 9-5 3 0 6 2 8 5l97 143c11 19 17 40 17 62 0 65-55 118-122 118-68 0-123-53-123-118 0-22 6-43 18-62z m9 303c56 0 102-44 102-98 0-18-5-36-14-50l-88-131-88 130c-10 15-15 33-15 51 0 54 46 98 103 98z m0-154c32 0 58 25 58 56 0 31-26 56-58 56-33 0-59-25-59-56 0-31 26-56 59-56z m0 92c20 0 37-16 37-36 0-20-17-36-37-36-21 0-38 16-38 36 0 20 17 36 38 36z"/>
<glyph unicode="&#57391;" d="M406 412c-1 1-3 1-4 1l-114 0c-6 0-10-4-10-10 0-6 4-10 10-10l89 0-155-155c-4-4-4-11 0-15 2-2 5-3 7-3 3 0 6 1 8 3l155 155 0-89c0-6 4-11 10-11 6 0 10 5 10 11l0 114c0 1 0 3-1 4-1 2-3 4-5 5z m-4-187c-6 0-10-4-10-10l0-109-287 0 0 287 109 0c6 0 11 4 11 10 0 6-5 10-11 10l-119 0c-6 0-10-4-10-10l0-307c0-6 4-10 10-10l307 0c6 0 10 4 10 10l0 119c0 6-4 10-10 10z"/>
<glyph unicode="&#57392;" d="M154 324c-6 0-11-5-11-11 0 0 0-52 0-53 1-62 51-114 113-119 0 0 0 0 0-1l0-27-47 0c-5 0-10-5-10-11 0-5 5-10 10-10l114 0c6 0 10 5 10 10 0 6-4 11-10 11l-47 0 0 27c0 1 0 1 0 1 62 5 112 56 113 119 0 1 0 53 0 53 0 6-4 11-10 11-6 0-10-5-10-11 0 0 0-51 0-53-1-55-47-99-103-99-56 0-101 45-102 100 0 1 0 52 0 52 0 6-5 11-10 11z m183-63l0 89c0 38-32 70-71 70-39 0-70-32-70-70l0-89c0-38 31-70 70-70 39 0 71 32 71 70z m-121 0l0 89c0 27 23 49 50 49 28 0 50-22 50-49l0-89c0-27-22-49-50-49-27 0-50 22-50 49z"/>
<glyph unicode="&#57393;" d="M156 315c6 0 10 5 10 11 0 5-4 10-10 10l-39 0c-5 0-10-5-10-10l0-225c0-6 5-10 10-10l225 0c6 0 11 4 11 10l0 38c0 6-5 11-11 11-5 0-10-5-10-11l0-28-204 0 0 204z m269 103l-225 0c-6 0-10-4-10-10l0-225c0-5 4-10 10-10l225 0c5 0 10 5 10 10l0 225c0 6-5 10-10 10z m-11-224l-204 0 0 204 204 0 0-204z"/>
<glyph unicode="&#57394;" d="M410 266l-308 0c-5 0-10-4-10-10 0-6 5-10 10-10l308 0c5 0 10 4 10 10 0 6-5 10-10 10z"/>
<glyph unicode="&#57395;" d="M352 191l0 123c0 57-46 103-103 103-56 0-102-46-102-103l0-123c0-56 46-102 102-102 57 0 103 46 103 102z m-184 0l0 123c0 46 36 82 81 82 46 0 82-36 82-82l0-123c0-45-36-81-82-81-45 0-81 36-81 81z m108 111l0 31c0 14-11 26-25 26-14 0-26-12-26-26l0-31c0-14 12-25 26-25 14 0 25 11 25 25z m-30 0l0 31c0 3 2 5 5 5 3 0 5-2 5-5l0-31c0-3-2-5-5-5-3 0-5 2-5 5z"/>
<glyph unicode="&#57396;" d="M338 233c-26 0-47-22-47-48 0-27 21-48 47-48 23 0 43 17 47 39 1 1 1 2 1 4l0 223c0 3-1 6-4 8-2 2-5 3-8 2l-192-41c-5-1-8-5-8-10l0-189c-8 6-17 9-27 9-27 0-48-22-48-48 0-27 21-48 48-48 26 0 47 21 47 48 0 1 0 2 0 3 0 1 0 1 0 2l0 154 171 36 0-105c-7 6-17 9-27 9z m0-76c-14 0-27 13-27 28 0 15 13 27 27 27 15 0 27-12 27-27 0-15-12-28-27-28z m-191-51c-15 0-27 13-27 28 0 15 12 27 27 27 15 0 27-12 27-27 0-15-12-28-27-28z m47 207l0 41 171 37 0-41z"/>
<glyph unicode="&#57397;" d="M249 248l20-143c0-4 4-8 8-8 1 0 1 0 2 0 4 0 8 2 9 6l137 307c1 4 0 8-3 11-3 3-7 4-11 2l-307-136c-4-2-7-6-6-11 1-4 4-8 9-9z m146 146l-111-250-16 114c-1 5-4 8-9 9l-114 16z"/>
<glyph unicode="&#57398;" d="M307 437c-20 0-41-4-61-8-19-4-38-8-57-8-14 0-27 2-39 7-1 0-3 1-4 1 0 0 0 0 0 0 0 0 0 0 0 0-2 0-3-1-4-1 0 0 0 0 0 0-1-1-1-1-2-1 0 0-1-1-1-1 0 0 0 0 0 0-1-1-2-2-2-3 0 0-1-1-1-1 0-1 0-2 0-3l0-308c0-5 4-10 10-10 6 0 10 5 10 10l0 155c11-3 21-5 33-5 21 0 41 5 61 9 20 4 39 7 57 7 15 0 28-2 40-7 3-1 7-1 9 1 3 2 5 5 5 9l0 139c0 4-3 7-6 9-15 6-30 9-48 9z m33-143c-10 3-21 4-33 4-20 0-41-4-61-8-19-4-38-8-57-8-12 0-23 2-33 5l0 117c11-2 21-4 33-4 21 0 41 4 61 8 20 5 39 8 57 8 12 0 23-1 33-5l0-117z"/>
<glyph unicode="&#57399;" d="M215 410c0 5-4 10-10 10l-77 0c-6 0-10-5-10-10l0-308c0-5 4-10 10-10l77 0c6 0 10 5 10 10z m-20-297l-57 0 0 286 57 0z m158 307l-77 0c-5 0-10-5-10-10l0-308c0-5 5-10 10-10l77 0c6 0 11 5 11 10l0 308c0 5-5 10-11 10z m-10-307l-57 0 0 286 57 0z"/>
<glyph unicode="&#57400;" d="M307 326c-1 0-1 1-1 1l-41 78c-3 6-15 6-18 0l-41-78c0 0 0-1-1-1 0 0 0 0 0 0 0 0 0-1 0-1 0-1 0-1 0-2l0-230c0-6 4-10 10-10l82 0c6 0 10 4 10 10l0 230c0 1 0 1 0 2 0 0 0 1 0 1 0 0 0 0 0 0z m-82-17l28-9c1 0 2 0 3 0 1 0 2 0 3 0l28 9 0-160-62 0z m31 69l26-49-26-8-26 8z m-31-275l0 26 62 0 0-26-62 0z"/>
<glyph unicode="&#57401;" d="M126 90c2 0 4 0 5 1l246 154c3 2 5 5 5 9 0 3-2 7-5 8l-246 154c-3 2-7 2-10 0-3-2-5-5-5-9l0-307c0-4 2-7 5-9 1-1 3-1 5-1z m10 299l216-135-216-135z"/>
<glyph unicode="&#57402;" d="M93 246l143 0 0-143c0-6 5-11 11-11 5 0 10 5 10 11l0 143 143 0c6 0 10 4 10 10 0 6-4 10-10 10l-143 0 0 144c0 5-5 10-10 10-6 0-11-5-11-10l0-144-143 0c-6 0-10-4-10-10 0-6 4-10 10-10z"/>
<glyph unicode="&#57403;" d="M219 342c6 1 9 7 7 12-1 6-7 9-12 8-58-17-99-71-99-133 0-76 60-138 134-138 73 0 133 62 133 138 0 62-41 116-99 133-5 1-11-2-12-8-2-5 1-11 7-12 49-14 83-60 83-113 0-65-50-118-112-118-63 0-113 53-113 118 0 53 34 99 83 113z m40-82l0 148c0 6-5 11-10 11-6 0-11-5-11-11l0-148c0-6 5-10 11-10 5 0 10 4 10 10z"/>
<glyph unicode="&#57404;" d="M403 292l-72 0 0 105c0 6-5 11-11 11l-141 0c-6 0-10-5-10-11l0-105-73 0c-6 0-10-4-10-10l0-133c0-6 4-10 10-10l71 0 0-37c0-5 4-10 10-10l141 0c6 0 11 5 11 10l0 37 74 0c6 0 11 4 11 10l0 133c0 6-5 10-11 10z m-214 95l121 0 0-95-121 0z m119-275l-121 0 0 65 121 0z m85 47l-64 0 0 29c0 5-5 10-11 10l-141 0c-6 0-10-5-10-10l0-29-61 0 0 113 71 0c1 0 1-1 2-1l141 0c1 0 2 1 2 1l71 0 0-113z"/>
<glyph unicode="&#57405;" d="M392 223c0 0-1 0-1 0 0 0 0 1-1 1 0 1-1 1-1 2 0 0-1 0-1 1-1 0-2 0-3 1 0 0 0 0 0 0 0 0-1 0-1 0-1 0-1 0-2 0-1 0-2 0-2 0 0 0-1 0-1 0l-58-22c-5-2-8-8-6-13 2-5 8-8 13-6l38 14c-19-44-62-73-110-73-55 0-102 37-116 91-2 6-7 9-13 8-5-2-8-7-7-13 16-63 72-107 136-107 56 0 106 34 128 85l19-36c2-3 5-5 9-5 1 0 3 0 5 1 5 2 7 9 4 14z m-136 150c53 0 99-34 115-86 1-5 7-8 13-7 5 2 8 8 6 13-18 60-72 101-134 101-54 0-102-31-125-79l-17 36c-2 5-9 7-14 5-5-3-7-9-5-14l27-57c0 0 0 0 0 0 1 0 1 0 1 0 0-1 1-2 2-3 0 0 0 0 0 0 1-1 2-1 3-2 0 0 0 0 1 0 0 0 0 0 0 0 1 0 2 0 3 0 0 0 0 0 0 0 0 0 1 0 2 0l59 16c5 2 8 7 7 13-2 5-7 8-13 7l-39-11c20 42 62 68 108 68z"/>
<glyph unicode="&#57406;" d="M298 99c5 0 10 5 10 10l0 293c0 6-5 10-10 10l-91 0c-6 0-10-4-10-10l0-293c0-5 4-10 10-10z m-11 293l0-272-70 0 0 20 17 0c6 0 10 4 10 10 0 5-4 10-10 10l-17 0 0 20 17 0c6 0 10 5 10 11 0 5-4 10-10 10l-17 0 0 20 17 0c6 0 10 5 10 11 0 5-4 10-10 10l-17 0 0 20 17 0c6 0 10 5 10 11 0 5-4 10-10 10l-17 0 0 20 17 0c6 0 10 5 10 11 0 5-4 10-10 10l-17 0 0 20 17 0c6 0 10 5 10 11 0 5-4 10-10 10l-17 0 0 27z"/>
<glyph unicode="&#57407;" d="M419 412l-54 0c-6 0-10-5-10-11l0-17-179 0 0 17c0 6-4 11-10 11l-54 0c-6 0-10-5-10-11l0-54c0-5 4-10 10-10l17 0 0-179-17 0c-6 0-10-4-10-10l0-54c0-6 4-10 10-10l54 0c6 0 10 4 10 10l0 17 179 0 0-17c0-6 4-10 10-10l54 0c6 0 10 4 10 10l0 54c0 6-4 10-10 10l-17 0 0 179 17 0c6 0 10 5 10 10l0 54c0 6-4 11-10 11z m-297-21l34 0 0-17c0 0 0 0 0 0 0 0 0 0 0 0l0-17-34 0z m0-287l0 34 34 0 0-17c0 0 0 0 0 0 0 0 0 0 0 0l0-17-34 0z m287 0l-34 0 0 34 34 0z m-27 54l-17 0c-6 0-10-4-10-10l0-17-179 0 0 17c0 6-4 10-10 10l-17 0 0 179 17 0c6 0 10 5 10 10l0 17 179 0 0-17c0-5 4-10 10-10l17 0 0-179z m27 199l-34 0 0 34 34 0z"/>
<glyph unicode="&#57408;" d="M104 231l25-3c3-13 8-26 15-37l-15-19c-3-4-2-10 1-14l27-27c4-3 10-4 14 0l19 15c11-7 23-13 36-16l3-25c1-5 5-9 10-9l39 0c5 0 9 4 10 9l2 25c14 3 27 8 39 15l19-15c4-3 9-3 13 1l27 27c4 3 4 9 1 13l-15 19c8 12 13 25 16 38l24 3c5 0 9 5 9 10l0 38c0 5-4 10-9 10l-24 3c-3 14-8 27-16 39l15 18c3 4 3 10-1 14l-27 26c-4 4-9 4-13 1l-19-15c-12 8-25 13-39 16l-2 24c-1 5-5 9-10 9l-39 0c-5 0-9-4-10-9l-3-25c-13-3-25-8-36-15l-19 15c-4 3-10 3-14-1l-27-26c-4-4-4-10-1-14l15-19c-7-12-12-24-15-38l-25-3c-5 0-9-5-9-10l0-38c0-5 4-10 9-10z m12 39l22 3c5 0 8 3 9 8 3 16 9 31 19 44 2 4 2 9-1 12l-14 18 14 14 18-14c3-3 8-3 12-1 13 9 27 15 43 18 4 1 8 4 8 9l3 23 19 0 3-23c0-4 4-8 8-9 16-3 31-9 45-18 3-2 8-2 12 1l17 14 14-14-13-17c-3-4-3-9-1-13 10-13 16-28 19-44 1-5 4-8 9-9l21-2 0-20-21-2c-5-1-8-4-9-8-3-16-10-31-19-45-3-4-2-9 0-12l14-17-14-14-17 14c-4 2-9 3-12 0-14-9-29-15-45-18-4-1-8-4-8-9l-3-22-19 0-3 23c0 4-4 8-8 9-16 3-30 9-43 18-4 2-9 2-12-1l-18-14-14 14 14 18c3 3 3 8 1 12-10 13-16 28-19 43-1 5-4 8-9 9l-22 2 0 20z m143-51c23 0 41 19 41 41 0 23-18 41-41 41-23 0-41-18-41-41 0-22 18-41 41-41z m0 62c11 0 20-10 20-21 0-11-9-20-20-20-11 0-21 9-21 20 0 11 10 21 21 21z"/>
<glyph unicode="&#57409;" d="M329 316c28 0 51 23 51 50 0 28-23 51-51 51-28 0-50-23-50-51 0-6 1-12 3-18l-100-58c-9 9-22 15-36 15-27 0-50-23-50-51 0-28 23-50 50-50 15 0 27 6 36 15l100-62c-2-6-3-11-3-17 0-28 22-51 50-51 28 0 51 23 51 51 0 27-23 50-51 50-14 0-27-6-36-16l-100 62c2 6 4 12 4 18 0 7-2 13-4 18l101 59c9-9 21-15 35-15z m0-147c17 0 30-13 30-29 0-17-13-30-30-30-16 0-30 13-30 30 0 5 2 10 4 15 0 0 1 0 1 0 0 0 0 0 0 0 5 9 14 14 25 14z m-183 55c-16 0-30 14-30 30 0 17 14 30 30 30 10 0 19-5 24-12 0 0 0-1 1-1 0-1 1-1 1-2 3-4 4-9 4-15 0-6-1-11-4-16 0 0 0 0 0 0-1 0 0 0-1 0-5-8-14-14-25-14z m183 172c17 0 30-13 30-30 0-16-13-30-30-30-16 0-30 14-30 30 0 17 14 30 30 30z"/>
<glyph unicode="&#57410;" d="M379 174c2-2 5-3 8-3 2 0 5 1 7 3l26 26c2 2 3 4 3 7 0 3-1 5-3 7l-26 26c-4 4-11 4-15 0-4-4-4-10 0-14l9-9-71 0-19 19c-4 4-11 4-15 0-4-4-4-10 0-14l23-22c2-2 4-3 7-3l75 0-9-9c-4-4-4-10 0-14z m-274 135l91 0 20-20c2-2 5-3 7-3 3 0 6 1 8 3 4 4 3 11-1 15l-22 22c-2 2-5 3-7 3l-96 0c-5 0-10-4-10-10 0-5 5-10 10-10z m0-112l97 0c2 0 5 1 7 3l109 109 70 0-9-8c-4-4-4-11 0-15 2-2 5-3 8-3 2 0 5 1 7 3l26 26c2 2 3 5 3 7 0 3-1 6-3 7l-26 26c-4 4-11 4-15 0-4-4-4-10 0-14l9-9-74 0c-3 0-5-1-7-3l-110-109-92 0c-5 0-10-4-10-10 0-6 5-10 10-10z"/>
<glyph unicode="&#57411;" d="M366 262l46 47c4 4 4 10 0 14-4 4-10 4-14 0l-47-46-46 46c-4 4-11 4-15 0-4-4-4-10 0-14l47-47-47-46c-4-4-4-11 0-15 2-2 5-3 8-3 2 0 5 1 7 3l46 47 47-47c2-2 5-3 7-3 3 0 5 1 7 3 4 4 4 11 0 15z m-134-140c1 0 3 1 4 1 4 2 6 6 6 10l0 245c0 4-2 8-6 9-3 2-7 2-10-1l-84-62-44 0c-6 0-10-5-10-11l0-116c0-5 4-10 10-10l44 0 84-63c2-1 4-2 6-2z m-10 31l-71 53c-1 1-4 2-6 2l-37 0 0 95 37 0c2 0 5 1 6 2l71 53z"/>
<glyph unicode="&#57412;" d="M382 127c3 0 6 1 8 3 29 31 46 76 46 123 0 47-17 91-46 122-4 4-11 4-15 0-4-4-4-10 0-15 26-26 40-66 40-107 0-42-14-82-40-108-4-4-4-11 0-15 2-2 5-3 7-3z m-34 32c3 0 5 1 7 3 23 22 36 55 36 91 0 35-13 68-36 90-4 4-10 4-14 0-4-4-4-10 0-14 19-19 30-47 30-76 0-30-11-58-30-77-4-3-4-10 0-14 2-2 5-3 7-3z m-40 50c-4-3-5-10-1-14 2-3 5-4 8-4 2 0 4 1 6 2 16 14 26 36 26 60 0 23-10 46-26 59-5 4-11 3-15-1-3-5-3-11 2-15 11-9 18-26 18-43 0-18-6-34-18-44z m-62 175l-84-63-44 0c-5 0-10-5-10-10l0-116c0-6 5-11 10-11l44 0 84-63c2-1 4-2 6-2 2 0 3 1 5 2 3 1 5 5 5 9l0 245c0 4-2 8-5 10-4 1-8 1-11-1z m-4-234l-70 53c-2 1-4 2-7 2l-36 0 0 95 36 0c3 0 5 1 7 2l70 53z"/>
<glyph unicode="&#57413;" d="M367 414l-205 0c-6 0-10-5-10-10l0-308c0-5 4-10 10-10l205 0c5 0 10 5 10 10l0 308c0 5-5 10-10 10z m-10-307l-185 0 0 286 185 0z m-93 25c38 0 69 31 69 69 0 38-31 69-69 69-37 0-68-31-68-69 0-38 31-69 68-69z m0 118c27 0 48-22 48-49 0-27-21-49-48-49-26 0-48 22-48 49 0 27 22 49 48 49z m14-49c0 8-6 14-14 14-7 0-13-6-13-14 0-7 6-13 13-13 8 0 14 6 14 13z m-14 103c17 0 30 13 30 30 0 17-13 31-30 31-17 0-30-14-30-31 0-17 13-30 30-30z m0 40c6 0 10-4 10-10 0-5-4-10-10-10-5 0-10 5-10 10 0 6 5 10 10 10z"/>
<glyph unicode="&#57414;" d="M162 223l-23-100c-1-4 0-8 4-11 3-2 7-2 11 0l90 53 89-53c2-1 4-2 5-2 3 0 5 1 7 2 3 3 4 7 3 11l-23 100 79 67c3 3 4 7 3 11-1 4-5 7-9 7l-104 9-41 94c-2 4-5 7-9 7-5 0-8-3-10-7l-40-94-105-9c-4 0-8-3-9-7-1-4 0-8 3-11z m39 74c4 0 7 2 9 6l34 78 33-78c2-4 5-6 9-6l86-7-65-56c-3-2-5-6-4-10l20-82-74 44c-3 2-7 2-11 0l-74-44 20 82c1 4 0 8-3 10l-66 56z"/>
<glyph unicode="&#57415;" d="M93 95l43 0c6 0 11 4 11 10l0 75c0 5-5 10-11 10l-43 0c-6 0-11-5-11-10l0-75c0-6 5-10 11-10z m10 74l23 0 0-54-23 0z m121-74c6 0 10 4 10 10l0 211c0 6-4 10-10 10l-44 0c-5 0-10-4-10-10l0-211c0-6 5-10 10-10z m-33 211l23 0 0-191-23 0z m121-211c6 0 10 4 10 10l0 141c0 6-4 10-10 10l-44 0c-6 0-10-4-10-10l0-141c0-6 4-10 10-10z m-34 141l24 0 0-121-24 0z m68 176l0-307c0-6 4-10 10-10l44 0c5 0 10 4 10 10l0 307c0 6-5 10-10 10l-44 0c-6 0-10-4-10-10z m20-10l24 0 0-287-24 0z"/>
<glyph unicode="&#57416;" d="M95 90l307 0c6 0 10 4 10 10l0 307c0 6-4 11-10 11l-307 0c-6 0-10-5-10-11l0-307c0-6 4-10 10-10z m10 307l287 0 0-287-287 0z"/>
<glyph unicode="&#57417;" d="M321 254c0 39-32 71-72 71-39 0-72-32-72-71 0-40 33-72 72-72 40 0 72 32 72 72z m-72-51c-28 0-51 22-51 51 0 28 23 51 51 51 28 0 51-23 51-51 0-29-23-51-51-51z m-10-40l0-63c0-6 4-10 10-10 6 0 10 4 10 10l0 63c0 6-4 10-10 10-6 0-10-4-10-10z m0 244l0-63c0-5 4-10 10-10 6 0 10 5 10 10l0 63c0 6-4 11-10 11-6 0-10-5-10-11z m111-269c2-2 5-3 8-3 2 0 5 1 7 3 4 4 4 10 0 14l-44 45c-4 4-11 4-15 0-4-4-4-11 0-15z m-217 232c-4-4-4-11 0-15l45-44c2-2 4-3 7-3 3 0 5 1 7 3 4 4 4 10 0 14l-44 45c-4 4-11 4-15 0z m270-106l-63 0c-6 0-10-5-10-10 0-6 4-11 10-11l63 0c5 0 10 5 10 11 0 5-5 10-10 10z m-318-10c0-6 5-11 10-11l63 0c6 0 11 5 11 11 0 5-5 10-11 10l-63 0c-5 0-10-5-10-10z m265 116l-44-45c-4-4-4-10 0-14 2-2 5-3 7-3 3 0 6 1 8 3l44 44c4 4 4 11 0 15-4 4-11 4-15 0z m-210-235c3 0 6 1 8 3l44 44c4 4 4 11 0 15-4 4-10 4-14 0l-45-45c-4-4-4-10 0-14 2-2 5-3 7-3z"/>
<glyph unicode="&#57418;" d="M105 366l32 0 15-260c0-5 5-10 10-10l194 0c5 0 10 5 10 10l15 260 32 0c5 0 10 5 10 11 0 5-5 10-10 10l-39 0c0 0-1 0-1 0-1 0-1 0-2 0l-54 0 0 27c0 5-4 10-10 10l-96 0c-6 0-10-5-10-10l0-27-54 0c-1 0-1 0-2 0 0 0 0 0-1 0l-39 0c-5 0-10-5-10-10 0-6 5-11 10-11z m116 38l76 0 0-17-76 0z m139-38l-14-249-174 0-14 249z m-152-230c0 0 1 0 1 0 5 0 10 5 9 11l-10 190c-1 5-6 10-11 9-6 0-10-5-10-11l11-189c0-6 5-10 10-10z m101 0c0 0 0 0 0 0 6 0 10 4 11 10l10 189c1 6-4 11-9 11-6 0-11-4-11-9l-11-190c0-6 4-11 10-11z m-50 0c6 0 10 5 10 10l0 190c0 6-4 10-10 10-6 0-10-4-10-10l0-190c0-5 4-10 10-10z"/>
<glyph unicode="&#57419;" d="M272 417c-79 0-143-69-143-153 0-6 4-10 10-10 6 0 10 4 10 10 0 14 11 26 23 26 13 0 23-12 23-26 0-6 5-10 11-10 5 0 10 4 10 10 0 14 10 26 23 26 13 0 23-12 23-26 0 0 0 0 0 0l0-119c0 0 0-1 0-1 0-1 0-2 0-2 0-18-14-32-32-32-17 0-32 14-32 32 0 5-4 10-10 10-6 0-10-5-10-10 0-29 23-53 52-53 29 0 52 24 52 53 0 0 0 0 0 1 0 1 0 1 0 2l0 120c1 14 11 24 23 24 13 0 23-11 23-25 0-6 5-10 11-10 5 0 10 4 10 10 0 14 10 25 23 25 13 0 23-11 23-25 0-6 5-10 10-10 0 0 0 0 0 0 0 0 0 0 0 0 6 0 11 4 11 10 0 84-65 153-144 153z m100-107c-13 0-25-7-33-17-8 10-20 17-34 17-13 0-25-7-33-17-8 10-20 17-33 17-14 0-25-7-33-17-8 10-20 17-34 17-5 0-11-1-16-3 16 52 62 89 116 89 54 0 100-37 117-90-6 3-11 4-17 4z"/>
<glyph unicode="&#57420;" d="M105 174c-5 0-10-4-10-10l0-63c0-6 5-10 10-10l287 0c6 0 10 4 10 10l0 63c0 6-4 10-10 10-6 0-10-4-10-10l0-53-266 0 0 53c0 6-5 10-11 10z m144-20c6 0 10 4 10 10l0 220 65-63c2-2 5-2 7-2 3 0 6 1 8 3 4 4 4 10 0 14l-83 79c0 1 0 1 0 1l0 0c0 0-1 0-1 0-1 1-1 1-2 2-1 0-2 0-4 0 0 0 0 1 0 1 0 0 0-1 0-1-1 0-3 0-4 0 0-1-1-1-2-2 0 0-1 0-1 0l0 0c0 0 0 0 0 0l-82-80c-4-4-4-10 0-14 3-4 10-5 14-1l65 63 0-220c0-6 5-10 10-10z"/>
<glyph unicode="&#57421;" d="M307 259l-185 0c-6 0-10-5-10-11l0-117c0-6 4-10 10-10l185 0c6 0 10 4 10 10l0 117c0 6-4 11-10 11z m-10-118l-165 0 0 97 165 0z m130 98l-83-20c-5-1-8-5-8-10l0-39c0-5 3-9 8-10l83-20c0 0 1-1 2-1 2 0 4 1 6 3 3 2 4 5 4 8l0 80c0 3-1 6-4 8-2 2-5 2-8 1z m-8-76l-62 15 0 23 62 15z m-263 117c21 0 39 17 39 38 0 21-18 38-39 38-22 0-39-17-39-38 0-21 17-38 39-38z m0 56c10 0 18-8 18-18 0-10-8-17-18-17-11 0-19 7-19 17 0 10 8 18 19 18z m107 51c-30 0-55-24-55-54 0-29 25-53 55-53 31 0 56 24 56 53 0 30-25 54-56 54z m0-86c-19 0-35 14-35 32 0 19 16 33 35 33 19 0 35-14 35-33 0-18-16-32-35-32z"/>
<glyph unicode="&#57422;" d="M113 288c36 42 89 65 146 65 56 0 109-23 146-65 2-2 4-4 7-4 3 0 5 1 7 3 4 4 5 10 1 14-40 46-99 73-161 73-63 0-121-27-162-73-3-4-3-10 1-14 5-4 11-3 15 1z m249-41c2-2 5-3 8-3 2 0 5 0 7 2 4 3 5 10 1 14-29 36-73 56-119 56-47 0-91-20-120-56-3-4-3-11 2-14 4-4 11-3 14 1 25 31 63 49 104 49 40 0 78-18 103-49z m-43-39c3-5 9-6 14-3 5 3 6 10 3 14-18 25-47 40-77 40-32 0-60-15-78-41-3-4-2-11 3-14 2-1 4-2 6-2 3 0 6 2 8 5 14 20 36 32 61 32 24 0 46-12 60-31z m-40-39c0 11-9 20-20 20-12 0-21-9-21-20 0-11 9-20 21-20 11 0 20 9 20 20z"/>
<glyph unicode="&#57423;" d="M345 301c0-42-29-77-66-86l0-78 45 0c4 0 7-3 7-7 0-4-3-7-7-7l-135 0c-4 0-7 3-7 7 0 4 3 7 7 7l45 0 0 78c-38 10-66 45-66 86-29 0-52 24-52 52l0 16c0 4 3 7 7 7l45 0 0 7c0 12-10 23-23 23-4 0-7 3-7 7 0 4 3 7 7 7l224 0c4 0 7-3 7-7 0-4-3-7-7-7-13 0-23-11-23-23l0-7 45 0c4 0 7-3 7-7l0-16c-1-29-24-52-53-52z m-96-164l15 0 0 75c-2 0-5 0-7 0-2 0-5 0-7 0l0-75z m-120 223l0-7c0-20 16-37 37-37l0 45-37 0z m45 44c5-6 7-14 7-22l0-82c0-41 34-75 75-75 41 0 75 34 75 75l0 82c0 8 3 16 7 22z m209-44l-37 0 0-45c21 0 37 17 37 37z m-216-252l179 0c4 0 7-4 7-8 0-4-3-7-7-7l-179 0c-4 0-7 3-7 7-1 3 3 8 7 8z"/>
<glyph unicode="&#57424;" d="M420 97l-328 0 0 8c0 52 96 93 123 98 1 2 2 6 2 11-6 7-20 25-27 49-5 3-10 8-13 17-4 11-4 26 3 36-1 15-5 52 17 76 13 15 32 22 58 22 26 0 45-7 58-22 22-24 19-61 17-76 8-10 8-25 3-36-3-9-7-14-14-17-5-23-20-42-26-49 0-4 1-9 2-11 27-5 123-46 123-98l0-8z m-309 18l290 0c-4 14-19 29-44 44-25 15-54 26-64 28-13 2-15 23-15 31l0 3 2 2c0 0 20 21 24 48l1 8 7 0c1 0 4 3 5 9 2 8 1 15-3 18l-3 3 0 4c0 1 0 3 0 5 1 14 5 44-12 63-9 11-26 16-46 16-21 0-36-5-46-16-18-19-13-49-12-63 0-2 0-4 0-5l0-4-4-3c-4-3-5-11-3-18 2-6 5-9 6-9l7 0 1-8c4-26 24-47 24-48l2-2 0-3c0-8-2-29-15-31-11-2-39-12-65-28-18-16-33-31-37-44z"/>
<glyph unicode="&#57425;" d="M420 249c0-2-1-4-3-6l-135-135c-3-4-8-4-11 0-3 3-3 7 0 10l133 133 0 47c0 4 4 7 8 7 4 0 7-3 7-7l0-49c1 0 1 0 1 0z m-194-154c0 0-1-1 0 0-2-2-4-3-6-3-2 0-4 1-5 2 0 0 0 1-1 1l-120 120c0 0-1 0-1 1-1 1-2 3-2 5 0 2 1 4 2 5 0 0 1 0 1 1l163 163c1 2 3 3 5 3l29 0c1 10 5 21 12 27 1 1 3 2 5 2 4 0 7-4 7-8 0-3-1-5-3-6-3-4-6-9-6-15l34 0c2 0 4-1 5-3l42-42c2-1 3-3 3-5l0-78c0-2-1-4-3-5z m151 244l-38 38-30 0c1-3 3-6 5-8 0 0 1 0 1-1 8-8 13-18 13-31 0 0 0-1 0-1 8-5 14-14 14-25 0-15-12-28-29-28-16 0-28 12-28 28 0 16 12 28 27 29-1 6-3 11-7 15 0 0-1 0-1 1-5 5-9 13-11 21l-27 0-156-157 111-111 157 156 0 74z m-72-18c2 2 3 4 4 6-6-2-10-8-10-14 0-8 6-14 14-14 9 0 15 6 15 14 0 3-1 6-3 10-4-12-10-14-10-14-1-1-3-2-5-2-4 0-7 4-7 8-1 1 0 3 2 6z m-133-89c3 4 7 4 10 0l50-50c4-3 4-7 0-10-3-3-7-3-10 0l-50 50c-2 3-2 7 0 10z m29 29c3 3 7 3 10 0l50-50c3-3 3-7 0-10-3-3-7-3-10 0l-50 50c-2 3-2 7 0 10z"/>
<glyph unicode="&#57426;" d="M249 89c-80 0-145 65-145 144 0 80 65 145 145 145l7 0 0-133 119 59 3-6c10-20 15-42 15-65 0-79-64-144-144-144z m-7 275c-69-5-123-61-123-131 0-71 58-130 130-130 72 0 130 59 130 130 0 19-4 36-10 53l-126-64 0 142z m28-95l0 154 6 0c93-1 128-79 128-80l3-5z m13 141l0-120 107 53c-9 17-41 64-107 67z"/>
<glyph unicode="&#57427;" d="M100 362l29 0c4-18 21-32 41-32 20 0 37 14 41 32l201 0c4 0 8 5 8 9 0 4-4 8-8 8l-201 0c-3 19-21 35-41 35-20 0-38-16-41-35l-29 0c-4 0-8-4-8-8 0-4 4-9 8-9z m70 31c12 0 21-9 21-21 0-13-9-22-21-22-12 0-22 9-22 22 0 12 10 21 22 21z m242-130l-41 0c-3 20-21 35-41 35-21 0-38-15-41-35l-189 0c-4 0-8-4-8-8 0-4 4-8 8-8l189 0c4-19 20-33 41-33 20 0 37 14 41 33l41 0c4 0 8 4 8 8 0 4-4 8-8 8z m-82-29c-13 0-22 10-22 22 0 12 9 22 22 22 12 0 21-10 21-22 0-12-9-22-21-22z m82-87l-156 0c-3 20-20 35-41 35-20 0-38-15-41-35l-74 0c-4 0-8-4-8-8 0-4 4-8 8-8l74 0c4-18 21-33 41-33 21 0 37 15 41 33l156 0c4 0 8 4 8 8 0 4-4 8-8 8z m-197-28c-12 0-21 9-21 21 0 13 9 22 21 22 12 0 22-9 22-22 0-12-10-21-22-21z"/>
<glyph unicode="&#57428;" d="M398 330c-2 4-5 8-8 12 9 5 14 14 14 26 0 16-13 29-29 29-11 0-21-6-26-14-4 3-8 5-12 8 8 13 21 22 38 22 24 0 45-21 45-45 0-17-8-30-22-38z m6-81c0-39-14-74-38-101l36-36c4-3 4-8 0-11-3-3-7-3-10 0l-37 37c-26-23-61-39-100-39-39 0-74 15-100 39l-37-37c-3-3-7-3-10 0-4 3-4 8 0 11l36 36c-23 27-39 62-39 101 0 82 67 148 149 148 84 0 150-66 150-148z m-148 134c-74 0-134-60-134-134 0-74 60-134 134-134 74 0 134 60 134 134 0 74-60 134-134 134z m7-163l0-67c0-5-3-8-7-8-4 0-7 3-7 8l0 67c-13 3-23 16-23 29 0 5 2 10 4 15l-31 32c-3 3-3 7 0 10 3 3 7 3 10 0l32-32c4 4 9 5 15 5 16 0 30-14 30-30 0-15-10-26-23-29z m-7 43c-8 0-15-7-15-15 0-8 7-16 15-16 8 0 15 8 15 16 0 9-7 15-15 15z m-119 134c-16 0-29-13-29-29 0-12 6-21 14-26-3-4-5-8-8-12-14 8-22 21-22 38 0 24 21 45 45 45 17 0 31-9 38-22-4-2-8-5-12-8-6 8-16 14-26 14z"/>
<glyph unicode="&#57429;" d="M391 99l-270 0c-16 0-29 13-29 29l29 171c5 25 19 29 35 29l18 0c10 49 43 85 82 85 39 0 71-36 82-85l18 0c16 0 30-4 35-29l29-171c0-16-12-29-29-29z m-135 299c-31 0-57-29-68-71l135 0c-10 42-36 71-67 71z m121-99c-2 9-7 14-17 14l-20 0c1-7 1-14 1-21 0-4-3-7-7-7-4 0-7 3-7 7 0 7 0 14-1 21l-140 0c-1-7-1-14-1-21 0-4-3-7-7-7-4 0-7 3-7 7 0 7 1 14 1 21l-20 0c-11 0-15-5-17-14l-29-171c0-8 7-14 15-14l270 0c8 0 15 6 15 14z"/>
<glyph unicode="&#57430;" d="M314 118c6 0 10 4 10 10 0 6-4 10-10 10l-205 0c-5 0-10-4-10-10 0-6 5-10 10-10z m102 102l-307 0c-5 0-10-4-10-10 0-6 5-10 10-10l307 0c6 0 11 4 11 10 0 6-5 10-11 10z m0 164l-307 0c-5 0-10-5-10-10 0-6 5-10 10-10l307 0c6 0 11 4 11 10 0 5-5 10-11 10z m-307-102l205 0c6 0 10 4 10 10 0 6-4 10-10 10l-205 0c-5 0-10-4-10-10 0-6 5-10 10-10z"/>
<glyph unicode="&#57431;" d="M281 284l-34-34 34-34c1-1 1-1 1-2 0-1 0-1-1-2l-5-4c-1-1-1-1-2-1-1 0-1 0-2 1l-40 40c-1 1-1 1-1 2 0 1 0 1 1 2l40 40c1 1 1 1 2 1 1 0 1 0 2-1l5-4c1-1 1-1 1-2 0 0-1-1-1-2z m92 120c18 0 34-15 34-33l0-229c0-18-16-33-34-33l-233 0c-18 0-34 15-34 33l0 229c0 18 16 33 34 33l233 0m0 14l-233 0c-26 0-47-22-47-47l0-229c0-26 22-47 47-47l233 0c26 0 47 22 47 47l0 229c0 25-22 47-47 47z"/>
<glyph unicode="&#57432;" d="M373 404c18 0 34-15 34-33l0-229c0-18-16-33-34-33l-233 0c-18 0-34 15-34 33l0 229c0 18 16 33 34 33l233 0m0 14l-233 0c-26 0-47-22-47-47l0-229c0-26 22-47 47-47l233 0c26 0 47 22 47 47l0 229c0 25-22 47-47 47z m-150-118l76-77-9-10-77 77z m66-1l10-9-77-77-9 10z"/>
<glyph unicode="&#57433;" d="M323 126l-134 0c-8 0-15 7-15 15l0 129-15-16c-6-6-17-6-22 0l-39 38c-3 3-5 7-5 11 0 4 1 8 4 11l62 64c8 8 11 8 12 8l39 0c10 0 11-1 13-3l2-2 0-3c0-17 13-27 31-27 18 0 31 11 31 27l0 3 2 2c2 2 3 3 13 3l39 0c1 0 5 0 12-8l62-64c3-3 4-7 4-11 0-4-2-8-5-11l-39-38c-3-3-7-4-10-4-5 0-9 2-12 5l-15 16 0-129c0-9-6-16-15-16z m-145 163c4 0 9-3 9-11l0-137c0-1 1-2 2-2l134 0c1 0 2 1 2 2l0 137c0 7 5 11 9 11 2 0 5-1 8-4l20-22c2-1 3-1 4 0l38 38c2 1 2 1 2 2 0 0 0 1-2 2l-61 64c-2 2-4 4-5 4l-37 0c-1 0-2 0-3 0-3-21-20-35-43-35-24 0-41 14-43 35-1 0-2 0-3 0l-37 0c-1-1-3-2-5-4l-62-64c-1-1-1-1-1-2 0 0 0-1 1-2l39-38c1-1 2-1 3 0l21 22c5 3 8 4 10 4z"/>
<glyph unicode="&#57434;" d="M412 230c3 4 7 13 8 23 1 30-29 40-44 41l-49 0c-2 4 1 9 1 9 1 1 16 20 26 50 12 34-18 59-19 60l-2 1c-1 0-11 4-22-1-7-4-12-13-13-25-3-29-28-52-39-61-2-1-3-2-4-3-8-8-16-26-23-38-4-8-15-22-21-27-4 0-11 0-17 0-3 6-9 13-15 13l-74 0c-8 0-15-7-15-15l0-143c0-9 7-16 15-16l74 0c7 0 14 5 16 13 3 0 5 3 6 2 2-2 6-11 16-15l2 0c1 0 50 0 94 0 23 0 42 0 51 0 14 0 21 6 25 12 7 10 7 21 6 28 9 8 11 25 11 31 0 6-2 10-4 14 6 5 11 15 12 26 4 9 1 16-2 21z m-229-117c0-1-1-1-1-1l-73 0c-1 0-1 1-1 1l0 143c0 1 1 1 1 1l73 0c1 0 1-1 1-1z m215 124l-7-6 6-6c0 0 5-5 5-16-1-13-9-19-9-19l-10-4 8-7c1-1 4-5 3-11-1-6-3-17-9-22l-8-3 5-5c1-4 2-14-3-20-3-4-7-6-14-6-23 0-128 0-143 0-4 2-9 4-10 5-1 2-4 10-17 10l0 118c7 0 19 0 19 0l2 0 2 1c1 1 20 19 27 33 6 13 13 28 18 33 1 1 2 1 3 2 12 10 40 36 44 71 1 7 3 12 6 14 3 2 7 1 9 1 4-4 21-20 14-43-9-27-24-46-25-46-3-5-8-16-1-26 3-4 9-6 13-5l47 0c1 0 30-4 30-27 3-11-4-16-5-16z"/>
<glyph unicode="&#57435;" d="M256 92c0 0-128 68-128 200 0 70 57 128 128 128 71 0 128-58 128-128 0-132-128-200-128-200z m0 314c-62 0-114-52-114-114 0-106 89-167 114-183 26 15 114 77 114 183 0 62-52 114-114 114z m0-179c-36 0-65 29-65 65 0 36 29 64 65 64 36 0 65-28 65-64 0-36-29-65-65-65z m0 114c-28 0-50-23-50-50 0-28 22-50 50-50 28 0 50 22 50 50 0 28-22 50-50 50z"/>
<glyph unicode="&#57436;" d="M373 404c18 0 34-15 34-33l0-229c0-18-16-33-34-33l-233 0c-18 0-34 15-34 33l0 229c0 18 16 33 34 33l233 0m0 14l-233 0c-26 0-47-22-47-47l0-229c0-26 22-47 47-47l233 0c26 0 47 22 47 47l0 229c0 25-22 47-47 47z m-171-155l108 0 0-13-108 0z"/>
<glyph unicode="&#57437;" d="M373 404c18 0 34-15 34-33l0-229c0-18-16-33-34-33l-233 0c-18 0-34 15-34 33l0 229c0 18 16 33 34 33l233 0m0 14l-233 0c-26 0-47-22-47-47l0-229c0-26 22-47 47-47l233 0c26 0 47 22 47 47l0 229c0 25-22 47-47 47z m-171-155l108 0 0-13-108 0z m47 47l13 0 0-108-13 0z"/>
<glyph unicode="&#57438;" d="M419 186c0 0 0-1 0 0 0-1 0-1 0 0 0-1 0-1 0 0 0-5-3-8-8-8 0 0-70 0-70 0-4 0-8 3-8 8 0 4 3 9 8 9l62 0c0 3 0 5 0 8 0 82-66 148-148 148-82 0-149-66-149-148 0-3 0-5 0-8l63 0c4 0 8-4 8-9 0-4-3-8-8-8 0 0-70 0-70 0-4 0-8 3-8 8 0 5-1 11-1 16 0 90 74 164 164 164 90 0 164-74 164-164 2-5 2-11 1-16z m-213 93c3 2 7 1 9-1l0 1c69-51 83-73 83-74 11-19 4-42-14-52-20-11-44-5-56 14 0 0-14 23-25 104l0-1c-2 3 0 6 3 9z m35-105c4-7 12-11 21-11 4 0 8 1 12 3 6 3 10 8 12 14 2 6 1 13-2 18 0 0-13 18-63 57 9-62 20-81 20-81z"/>
<glyph unicode="&#57439;" d="M256 157c-88 0-159 92-162 96l-2 3 2 3c3 4 73 96 162 96 89 0 159-92 162-96l2-3-2-3c-3-4-74-96-162-96z m-152 99c13-15 77-90 152-90 75 0 138 74 152 90-13 15-77 90-152 90-75 0-138-75-152-90z m152-75c-41 0-75 34-75 74 0 41 34 75 75 75 41 0 75-34 75-75 0-40-34-74-75-74z m0 140c-36 0-65-29-65-65 0-36 29-65 65-65 36 0 65 29 65 65 0 36-29 65-65 65z"/>
<glyph unicode="&#57440;" d="M360 327c23-25 36-58 36-94 0-77-62-140-140-140-78 0-140 63-140 140 0 70 50 127 116 139l0 34-15 0c-4 0-8 3-8 8 0 4 3 8 8 8l78 0c4 0 8-3 8-8 0-4-3-8-8-8l-15 0 0-34c26-4 51-17 70-34l19 18c3 3 8 3 11 0 3-3 3-8 0-11z m-96 77l-15 0 0-31c3 0 5 0 8 0 3 0 5 0 8 0l0 31z m-8-47c-69 0-125-56-125-125 0-68 56-124 125-124 69 0 125 56 125 124 0 69-56 125-125 125z m0-155c-17 0-31 14-31 30 0 7 2 12 4 17l-41 41c-3 3-3 8 0 11 3 3 9 3 12 0l41-41c5 3 10 4 16 4 17 0 31-14 31-31 0-16-15-31-32-31z m0 46c-8 0-15-7-15-16 0-8 7-15 15-15 8 0 15 7 15 15 0 10-7 16-15 16z"/>
<glyph unicode="&#57441;" d="M292 375l-10 2c0 2 1 3 1 6 0 15-13 27-27 27-15 0-27-13-27-28 0-2 0-3 1-5l-10-2c-1 3-1 5-1 7 0 20 17 38 37 38 20 0 37-17 38-37-1-3-1-6-2-8z m-167-245l-9 5c0 1 32 66 32 121 0 84 36 128 106 128 40 0 69-13 87-42 13-20 20-49 20-85 0-55 34-120 34-121l-9-5c-1 3-35 68-36 126 0 34-6 60-18 80-16 24-42 37-77 37 0 0-1 0-1 0-64 0-96-40-95-118 1-57-32-123-34-126z m202 168c-2 0-4 1-5 3-9 21-23 35-42 41-4 1-5 4-4 6 2 3 5 4 7 3 23-7 40-22 49-47 1-3 0-6-3-7-1 1-1 1-2 1z m-74-206c-69 0-137 13-138 41 0 12 15 24 43 31 25 7 60 11 97 11 70 0 140-13 141-41 0-12-15-23-43-31-25-7-60-11-97-11-1 0-2 0-3 0z m6 73c-1 0-2 0-3 0-36 0-70-4-94-11-27-8-36-16-36-21 0-13 50-31 130-31 36 0 70 4 94 12 27 7 36 15 36 20 0 13-48 31-127 31z"/>
<glyph unicode="&#57442;" d="M286 122c0-17-14-30-30-30-16 0-30 13-30 30-95 3-120 18-120 37 0 6 4 11 10 16 45 50 58 36 58 111 0 49 2 94 62 102-2 3-3 6-3 9 0 13 11 23 23 23 12 0 23-10 23-23 0-3-1-6-3-9 60-8 62-53 62-102 0-75 13-61 58-111 6-5 8-10 8-16 0-19-24-34-118-37z m-30-14c8 0 15 7 15 15-5 0-9 0-14 0-5 0-10 0-14 0-2-9 5-15 13-15z m0 296c-4 0-7-3-7-7 0-4 3-7 7-7 4 0 7 3 7 7 0 4-3 7-7 7z m131-240c0 0-11 12-30 30-25 23-33 33-33 92 0 57-3 89-67 89-63 0-67-33-67-89 0-59-9-70-33-92-19-17-30-30-30-30-3-2-3-4-3-5 0-1 1-23 134-23 132 0 134 22 134 23-2 1-2 2-5 5z"/>
<glyph unicode="&#57443;" d="M293 118l-3 10c46 12 82 48 94 94l10-3c-12-50-51-89-101-101z m-74 0c-49 13-88 52-101 101l10 3c12-46 48-82 94-94z m37 59c-43 0-79 36-79 79 0 43 36 79 79 79 43 0 79-36 79-79 0-43-36-79-79-79z m0 148c-38 0-69-31-69-69 0-38 31-69 69-69 38 0 69 31 69 69 0 38-31 69-69 69z m129-34c-12 46-48 82-94 94l3 10c49-13 88-52 101-101z m-258 0l-10 3c13 49 52 88 101 101l3-10c-46-12-82-48-94-94z m114 32c-2 0-4 1-5 3l-27 81c0 1 0 3 0 4 1 1 2 2 3 2 29 8 58 8 87 0 1 0 2-1 3-2 1-1 1-3 0-4l-27-81c-1-2-3-4-6-3-9 2-18 2-27 0 0 0 0 0-1 0z m-21 83l24-72c8 1 15 1 23 0l24 72c-23 6-47 6-71 0z m189-197c-1 0-1 0-2 0l-81 27c-2 1-4 3-3 6 1 4 2 9 2 14 0 5-1 9-2 14-1 3 1 5 3 6l81 27c1 0 3 0 4 0 1-1 2-2 2-3 4-14 6-29 6-44 0-14-2-30-6-44 0-1-1-2-2-3 0 0-1 0-2 0z m-75 35l72-24c3 11 4 24 4 36 0 12-1 24-4 36l-72-24c1-4 1-8 1-12 0-4 0-8-1-12z m-78-152c-14 0-30 2-44 6-1 0-2 1-3 2-1 1-1 3 0 4l27 81c1 2 3 4 6 3 9-2 18-2 27 0 2 1 5-1 6-3l27-81c0-1 0-3 0-4-1-1-2-2-3-2-13-4-29-6-43-6z m-36 14c24-6 48-6 72 0l-24 72c-8-1-15-1-23 0z m-117 103c-1 0-2 0-2 1-1 1-2 2-2 3-4 14-6 29-6 44 0 14 2 30 6 44 0 1 1 2 2 3 1 1 3 1 4 0l81-26c2-2 4-4 3-7-1-5-2-9-2-14 0-5 1-9 2-14 1-3-1-5-3-6l-81-27c-1-1-2-1-2-1z m3 83c-3-11-4-24-4-36 0-12 1-24 4-36l72 24c-1 4-1 8-1 12 0 4 0 8 1 12z"/>
<glyph unicode="&#57444;" d="M169 249c2 0 3 1 4 2l173 157c3 2 3 7 0 9-2 3-7 3-9 0l-173-157c-3-2-3-7 0-9 2-1 4-2 5-2z m174-157c2 0 4 1 5 2 2 3 2 7 0 9l-173 157c-3 2-7 2-9 0-2-3-2-7 0-9l173-157c0-1 2-2 4-2z"/>
<glyph unicode="&#57445;" d="M181 92c-3 0-5 1-8 2-7 4-10 12-7 20l38 111-37 0c-5 0-10 3-13 7-3 5-4 11-2 16l60 162c2 6 8 10 15 10l120 0c9 0 17-7 17-17 0-3-2-7-4-9l-60-89 30 0c6 0 12-4 14-9 3-6 2-12-2-17l-147-181c-5-4-10-6-14-6z m45 315c-1 0-2-1-3-3l-60-161c0-1 0-2 0-2 0-1 1-1 2-1l56 0-44-129c0-1 0-3 1-3 2-2 3 0 3 1l148 180c1 1 1 2 0 3 0 1-1 2-2 2l-56 0 76 110c0 0 1 2 1 3 0 2-1 3-3 3l-119 0z"/>
<glyph unicode="&#57446;" d="M231 216l34 34-34 34c-1 1-1 1-1 2 0 1 0 1 1 2l5 4c1 1 1 1 2 1 1 0 1 0 2-1l40-40c1-1 1-1 1-2 0-1 0-1-1-2l-40-40c-1-1-1-1-2-1-1 0-1 0-2 1l-5 4c-1 1-1 1-1 2 0 1 1 1 1 2z m142 188c18 0 34-15 34-33l0-229c0-18-16-33-34-33l-233 0c-18 0-34 15-34 33l0 229c0 18 16 33 34 33l233 0m0 14l-233 0c-26 0-47-22-47-47l0-229c0-26 22-47 47-47l233 0c26 0 47 22 47 47l0 229c0 25-22 47-47 47z"/>
<glyph unicode="&#57447;" d="M179 387l-11 0 0 15c0 5-3 8-7 8-4 0-7-3-7-8l0-15-12 0 0 15c0 11 9 18 18 18 10 0 17-8 17-18l0-15z m189 0l-12 0 0 15c0 5-3 8-7 8-4 0-7-3-7-8l0-15-11 0 0 15c0 11 8 18 17 18 10 0 18-8 18-18l0-15z m24-295l-271 0c-10 0-19 8-19 19l0 264c0 10 9 18 19 18l35 0 0-24c0-4 3-8 7-8 4 0 7 4 7 8l0 24 174 0 0-24c0-4 3-8 7-8 4 0 7 4 7 8l0 24 35 0c10 0 19-8 19-18l0-264c-2-11-11-19-20-19z m-272 290c-4 0-7-3-7-7l0-264c0-5 3-8 7-8l271 0c4 0 7 3 7 8l0 264c0 4-3 7-7 7l-23 0 0-14c0-11-9-18-18-18-10 0-17 8-17 18l0 14-153 0 0-14c0-11-8-18-17-18-10 0-18 8-18 18l0 14z m230-32c-10 0-17 8-17 18l0 19 11 0 0-19c0-4 3-8 7-8 4 0 7 4 7 8l0 19 12 0 0-19c-2-11-10-18-20-18z m-242-27l296 0 0-12-296 0z"/>
<glyph unicode="&#57448;" d="M343 249c-2 0-3 1-4 2l-173 157c-3 2-3 7 0 9 2 3 7 3 9 0l173-157c3-2 3-7 0-9-2-1-3-2-5-2z m-174-157c-2 0-4 1-5 2-2 3-2 7 0 9l173 157c3 2 7 2 9 0 2-3 2-7 0-9l-173-157c0-1-2-2-4-2z"/>
<glyph unicode="&#57449;" d="M290 225l-34 34-34-34c-1-1-1-1-2-1-1 0-1 0-2 1l-4 4c-1 1-1 1-1 2 0 1 0 1 1 2l40 40c1 1 1 1 2 1 1 0 1 0 2-1l40-40c1-1 1-1 1-2 0-1 0-1-1-2l-4-4c-1-1-1-1-2-1 0 0-1 1-2 1z m83 179c18 0 34-15 34-33l0-229c0-18-16-33-34-33l-233 0c-18 0-34 15-34 33l0 229c0 18 16 33 34 33l233 0m0 14l-233 0c-26 0-47-22-47-47l0-229c0-26 22-47 47-47l233 0c26 0 47 22 47 47l0 229c0 25-22 47-47 47z"/>
<glyph unicode="&#57450;" d="M218 223l49-49-8-8-49 49z m-34 70c-13 0-23 10-23 23 0 14 10 24 23 24 14 0 24-10 24-24 0-13-11-23-24-23z m0 36c-7 0-12-5-12-13 0-7 5-12 12-12 7 0 13 5 13 12 0 7-7 13-13 13z m225-147l11 0 0-30-11 0z m-317-11l11 0 0-19-11 0z m0-14l0 209 328 0 0-197-122 126-82-84-36 37z m11 197l0-170 76 78 36-37 82 84 111-113 0 157-305 0z m317-208l-328 0 0 27 87 90 36-37 82 84 122-126 0-38z m-317 12l306 0 0 22-111 114-82-84-36 37-76-78 0-11z"/>
<glyph unicode="&#57451;" d="M391 142l-270 0c-16 0-29 13-29 29l0 171c0 15 12 29 29 29l270 0c16 0 29-13 29-29l0-171c0-16-12-29-29-29z m-285 136l300 0 0 28-300 0z m300 63c0 8-7 14-15 14l-270 0c-8 0-15-6-15-14l0-22 300 0z m0-78l-300 0 0-92c0-8 7-14 15-14l270 0c8 0 15 6 15 14z m-136-43l-28 0c-4 0-8 3-8 7 0 4 4 7 8 7l28 0c4 0 8-3 8-7 0-4-4-7-8-7z m-64 0l-65 0c-4 0-7 3-7 7 0 4 3 7 7 7l65 0c4 0 7-3 7-7 0-4-3-7-7-7z m-64-21l43 0c4 0 8-3 8-8 0-4-4-7-8-7l-43 0c-4 0-7 3-7 7 0 5 3 8 7 8z"/>
<glyph unicode="&#57452;" d="M391 135l-270 0c-16 0-29 12-29 29l0 184c0 16 12 29 29 29l270 0c16 0 29-12 29-29l0-184c0-17-12-29-29-29z m15 213c0 8-7 14-15 14l-270 0c-8 0-15-6-15-14l0-184c0-8 7-14 15-14l270 0c8 0 15 6 15 14z m-26-169l-45 45-26-25 24-24c3-3 3-7 0-10-3-3-7-3-10 0l-103 102-88-88c-3-3-7-3-10 0-3 3-3 7 0 10l92 93c0 0 0 1 1 1 1 1 3 2 5 2 2 0 4-1 5-2 0 0 0-1 1-1l73-73 30 30c0 0 0 1 1 1 1 1 3 2 5 2 2 0 4-1 5-2 0 0 0-1 1-1l49-50c3-3 3-7 0-10-3-2-8-2-10 0z m-88 113c-16 0-29 12-29 29 0 15 12 28 29 28 16 0 29-12 29-28 0-17-14-29-29-29z m0 43c-8 0-14-6-14-14 0-9 6-15 14-15 8 0 14 6 14 15 0 8-7 14-14 14z"/>
<glyph unicode="&#57453;" d="M400 389c-26 27-69 27-96 0l-196-196c-21-21-21-54 0-74 20-21 53-21 73 0l88 88 85 85c15 14 15 37 0 51-14 14-37 14-51 0l-127-127 9-9 127 127c5 5 11 7 17 7 6 0 12-2 16-7 5-5 7-10 7-17 0-6-2-12-7-16l-85-85-88-88c-8-8-18-11-29-11-10 0-20 4-28 11-9 8-12 18-12 29 0 10 5 20 12 28l21 22 110 109 65 66c12 11 25 16 39 16 15 0 29-5 39-16 11-11 17-25 17-39 0-14-6-29-17-39l-150-150 9-10 150 151c28 24 28 67 2 94z"/>
<glyph unicode="&#57454;" d="M353 283l0-30-25-15-16-26-4 0 0-112c0-2-1-4-2-5-1-1-3-2-5-2-2 0-4 1-6 3l-39 39-39-39c-1-2-3-3-6-3-2 0-4 1-5 2-1 1-2 3-2 5l0 112-4 0-16 26-25 15 0 30-16 25 16 26 0 30 25 15 16 25 29 0 26 16 26-16 29 0 16-25 25-15 0-30 16-26z m-134-72l0-94 31 30c0 0 0 1 1 1 1 2 3 3 5 3 2 0 4-1 5-3 0 0 0-1 1-1l31-30 0 94-11 0-26-15-26 15z m119 119l0 25-22 13-12 21-25 0-22 12-21-12-26 0-12-21-22-13 0-25-12-22 12-21 0-26 22-12 12-22 26 0 21-12 22 12 25 0 12 22 22 12 0 26 12 21z"/>
<glyph unicode="&#57455;" d="M403 257l-162-163c0 0 0-1-1-1-1-1-3-2-6-2-2 0-4 1-5 2 0 0 0 1-1 1l-119 120c0 0-1 0-1 1-2 1-3 3-3 5 0 2 1 4 3 5 0 0 1 0 1 1l162 163c1 2 3 3 5 3l29 0c1 10 5 21 12 27 1 1 4 2 6 2 4 0 7-4 7-8 0-3-1-5-3-6-3-4-6-9-6-15l33 0c2 0 4-1 5-3l42-42c2-1 3-3 3-5l0-78c3-4 2-6-1-7z m-73 50c-1-1-3-2-5-2-4 0-8 4-8 8 0 3 1 5 4 6 2 3 3 5 4 7-7-2-11-8-11-14 0-8 7-14 15-14 8 0 14 6 14 14 0 3-1 6-3 10-5-12-10-15-10-15z m62 31l-38 38-29 0c1-3 3-6 5-8 0 0 1 0 1-1 7-8 12-18 12-31l0-1c8-5 14-14 14-25 0-15-12-28-28-28-16 0-29 12-29 28 0 16 12 28 28 29-1 6-3 11-7 15 0 0-2 0-2 1-5 5-9 13-11 21l-26 0-157-157 112-111 156 156z m-205-107c3 3 8 3 11 0l50-50c3-3 3-7 0-10-3-3-7-3-10 0l-51 50c-2 3-2 7 0 10z m29 29c3 3 7 3 10 0l50-50c4-3 4-7 0-10-3-3-7-3-10 0l-50 50c-2 3-2 7 0 10z"/>
<glyph unicode="&#57456;" d="M256 97c-87 0-159 72-159 159 0 5 4 10 11 10 6 0 10-4 10-10 0-71 53-130 124-138l5-1 0 189-5 1c-24 6-41 28-41 52 0 30 24 55 54 55 30 0 54-25 54-55 0-24-16-46-41-52l-2-1 0-189 5 1c71 8 124 67 124 138 0 5 4 10 9 10 6 0 11-4 11-10 0-87-72-159-159-159z m0 298c-19 0-35-15-35-35 0-19 16-34 35-34 19 0 35 15 35 34 0 20-16 35-35 35z"/>
<glyph unicode="&#57457;" d="M322 133c-5 0-9 0-11 4l-127 221-75 0c-7 0-12 4-12 11 0 6 5 10 12 10l81 0c5 0 9 0 11-4l127-221 75 0c7 0 12-4 12-11 0-6-5-10-12-10z m-33 225c-6 0-11 4-11 11 0 6 5 10 11 10l82 0c6 0 11-4 11-10 0-7-5-11-11-11z"/>
<glyph unicode="&#57458;" d="M440 157l0 154-103 109-162 0-103-109 0-155c0-24 4-41 18-53 11-9 24-11 33-11 4 0 6 0 8 0l251 0c22 0 38 7 49 20 13 17 9 39 9 45z m-255 242l141 0 75-82-84 0 0-11c0-35-26-62-61-62-35 0-61 28-61 62l0 11-84 0z m229-273c-6-7-17-13-32-13l-252 0-2 2c0 0-14-1-25 6-7 7-11 18-11 35l0 141 77 0c6-41 43-76 87-76 44 0 81 35 87 76l77 0 0-144c0-1 2-17-6-27z"/>
<glyph unicode="&#57459;" d="M201 162c4 4 4 10 0 14l-70 70 279 0c6 0 10 4 10 10 0 6-4 10-10 10l-279 0 70 70c4 4 4 10 0 14-4 4-11 4-15 0l-94-94 94-94c4-4 11-4 15 0z"/>
<glyph unicode="&#57460;" d="M311 351c-4-4-4-11 0-14l70-70-279 0c-6 0-10-4-10-10 0-6 4-10 10-10l279 0-70-70c-4-4-4-10 0-14 4-4 11-4 15 0l94 93-94 94c-4 5-11 5-15 1z"/>
<glyph unicode="&#57461;" d="M317 369l0 14c0 37-34 68-71 68-37 0-72-31-72-68l0-14-51 0 0-217c0-17 10-29 27-29l192 0c16 0 27 13 27 29l0 217z m-122 14c0 27 24 48 51 48 26 0 51-21 51-48l0-14-102 0z m153-230c0-6-4-10-9-10l-186 0c-6 0-10 4-10 10l0 195 205 0z"/>
<glyph unicode="&#57462;" d="M174 92c-21 0-41 20-41 41l0 219c0 22 20 37 41 37l22 0 1 4c5 16 20 27 36 27l60 0c16 0 32-11 37-27l1-4 21 0c22 0 36-15 36-37l0-219c0-21-14-41-36-41z m0 277c-11 0-20-7-20-17l0-219c0-11 9-20 20-20l179 0c12 0 16 9 16 20l0 219c0 12-4 17-16 17l-21 0-1-4c-5-16-21-27-37-27l-60 0c-16 0-31 11-36 27l-2 4z m59 30c-11 0-20-9-20-20 0-11 9-21 20-21l60 0c11 0 20 10 20 21 0 11-9 20-20 20z"/>
<glyph unicode="&#57463;" d="M162 311c4-4 10-4 14 0l70 70 0-279c0-6 4-10 10-10 6 0 10 4 10 10l0 279 70-70c4-4 10-4 14 0 4 4 4 11 0 15l-94 94-94-94c-4-4-4-11 0-15z"/>
<glyph unicode="&#57464;" d="M350 202c-4 4-10 4-14 0l-70-70 0 278c0 6-4 10-10 10-6 0-10-4-10-10l0-279-70 70c-4 4-10 4-14 0-4-4-4-11 0-15l94-94 94 94c4 5 4 12 0 16z"/>
<glyph unicode="&#57465;" d="M116 256c-32 32-32 84 0 116 15 15 36 23 57 23 22 0 42-8 57-23l25-25 25 25c15 15 35 23 57 23 21 0 42-8 57-23 32-32 32-84 0-116l-138-139z m58 121c-17 0-33-6-45-19-25-24-25-64 0-89l127-127 127 127c12 13 18 28 18 45 0 18-6 33-18 45-12 13-28 19-45 19-17 0-33-6-45-19l-37-37-37 36c-12 13-29 19-45 19z"/>
<glyph unicode="&#57466;" d="M256 92c-44 0-85 18-116 48-30 31-48 72-48 116 0 44 18 85 48 116 31 30 72 48 116 48 44 0 85-18 116-48 63-64 63-168 0-232-31-30-72-48-116-48z m-94 55l4-4c25-20 57-31 90-31 33 0 65 11 90 31l4 4-51 52-4-2c-11-9-25-13-39-13-14 0-28 4-40 13l-4 2z m151 152l2-4c17-24 17-55 0-79l-2-4 52-51 4 4c42 52 42 127 0 179l-4 5z m-170 47c-41-52-41-128 0-180l4-4 52 51-2 4c-17 24-17 55 0 79l2 4-52 51z m113-39c-29 0-51-23-51-51 0-28 23-51 51-51 28 0 51 23 51 51 0 28-22 51-51 51z m0 92c-33 0-65-11-90-31l-4-4 51-52 4 2c11 9 26 13 40 13 14 0 28-4 40-13l4-2 51 52-6 5c-25 19-57 30-90 30z"/>
<glyph unicode="&#57467;" d="M202 97c-13 0-25 2-36 7-12 6-23 13-32 22-9 9-16 19-21 32-5 11-8 23-8 36 0 12 3 24 8 35 5 13 12 23 21 32l134 133c6 6 15 12 23 15 8 3 16 5 25 5 10 0 18-2 26-5 8-3 15-9 23-15 6-6 11-14 14-22 3-8 5-17 5-26 0-9-2-17-5-25-3-9-8-16-14-23l-134-133c-4-4-8-6-12-8-4-2-9-3-14-3-5 0-10 1-15 3-5 2-9 5-12 8-4 4-6 8-8 12-5 7-6 11-6 17 0 5 1 10 3 14 2 5 5 9 8 12l123 123c2 2 4 3 6 3 2 0 5-1 6-3 4-4 4-9 0-13l-123-123c-4-4-6-8-6-14 0-7 2-11 6-15 4-4 9-6 15-6 5 0 10 2 14 6l133 133c9 10 15 22 15 34 0 12-6 25-15 34-9 9-21 14-34 14-13 0-25-5-33-14l-135-133c-7-7-13-17-17-26-4-9-6-19-6-30 0-10 2-19 6-29 4-9 9-19 17-26 8-7 17-13 26-17 9-4 20-6 30-6 10 0 19 2 29 6 10 4 19 9 26 17l133 133c2 2 4 3 6 3 2 0 5-1 6-3 5-4 5-9 0-13l-133-133c-9-9-19-17-31-22-13-1-24-3-37-3z"/>
<glyph unicode="&#57468;" d="M92 331l89 0 0 89-89 0z m20 69l49 0 0-49-49 0z m99-69l89 0 0 89-89 0z m20 69l50 0 0-49-50 0z m100 20l0-89 89 0 0 89z m69-70l-49 0 0 49 49 0z m-308-139l89 0 0 89-89 0z m20 70l49 0 0-50-49 0z m99-70l89 0 0 89-89 0z m20 70l50 0 0-50-50 0z m100-70l89 0 0 89-89 0z m19 70l49 0 0-50-49 0z m-258-189l89 0 0 89-89 0z m20 70l49 0 0-49-49 0z m99-70l89 0 0 89-89 0z m20 70l50 0 0-49-50 0z m100-70l89 0 0 89-89 0z m19 70l49 0 0-49-49 0z"/>
<glyph unicode="&#57469;" d="M148 89c-11 0-20 9-20 21l0 141-7 0c-5 0-9 4-9 9l0 64c0 5 4 9 9 9l75 0-32 8c-3 1-6 3-7 7-1 3 0 7 2 9l60 61c2 2 4 3 7 3 1 0 2 0 2 0 3-1 6-3 8-7l19-73 19 73c1 3 4 6 8 7 1 0 2 0 2 0 2 0 5-1 7-3l60-61c2-2 3-6 2-9-1-3-3-6-7-7l-32-8 75 0c5 0 9-4 9-9l0-64c0-5-4-9-9-9l-7 0 0-141c0-12-9-21-21-21z m216 20c1 0 1 1 1 1l0 141-76 0 0-143 75 0z m-94 0l0 143-28 0 0-143z m-124 1c0-1 1-1 1-1l75 0 0 143-76 0z m236 160l0 45-78 0 0-45z m-96 0l0 45-59 0 0-45z m-78 0l0 45-78 0 0-45z m67 73l52 13-38 38z m-38 0l-14 51-38-38z"/>
<glyph unicode="&#57470;" d="M139 358l-28 0c-7 0-11 4-11 11 0 6 4 10 11 10l28 0c6 0 11-4 11-10 0-7-6-11-11-11z m263 0l-209 0c-7 0-11 4-11 11 0 6 4 10 11 10l209 0c7 0 11-4 11-10 0-7-5-11-11-11z m-263-112l-28 0c-7 0-11 4-11 10 0 6 4 10 11 10l28 0c6 0 11-4 11-10 0-6-6-10-11-10z m263 0l-209 0c-7 0-11 4-11 10 0 6 4 10 11 10l209 0c7 0 11-4 11-10 0-6-5-10-11-10z m-263-113l-28 0c-7 0-11 4-11 10 0 7 4 11 11 11l28 0c6 0 11-4 11-11 0-6-6-10-11-10z m263 0l-209 0c-7 0-11 4-11 10 0 7 4 11 11 11l209 0c7 0 11-4 11-11 0-6-5-10-11-10z"/>
<glyph unicode="&#57471;" d="M410 351l-215 0c-7 0-11 5-11 10 0 7 5 11 11 11l215 0c6 0 10-5 10-11 0-6-5-10-10-10z m0-105l-215 0c-7 0-11 5-11 10 0 6 5 10 11 10l215 0c6 0 10-5 10-10 0-5-5-10-10-10z m0-105l-215 0c-7 0-11 5-11 11 0 6 5 10 11 10l215 0c6 0 10-5 10-10 0-6-5-11-10-11z m-286 188c-18 0-32 14-32 31 0 18 14 32 32 32 17 0 32-14 32-32-1-17-15-31-32-31z m0 42c-6 0-10-5-10-11 0-6 5-10 10-10 5 0 10 5 10 10 0 6-5 11-10 11z m0-147c-18 0-32 15-32 32 0 17 14 32 32 32 17 0 32-15 32-32-1-18-15-32-32-32z m0 42c-6 0-10-5-10-10 0-6 5-10 10-10 5 0 10 5 10 10 0 5-5 10-10 10z m0-145c-18 0-32 14-32 32 0 17 14 31 32 31 17 0 32-14 32-31-1-19-15-32-32-32z m0 42c-6 0-10-5-10-10 0-6 5-11 10-11 5 0 10 5 10 11 0 5-5 10-10 10z"/>
<glyph unicode="&#57472;" d="M256 89c-1 0-2 0-4 1l-154 70c-3 1-5 4-5 8l0 177c0 4 2 7 5 9l153 68c1 0 2 1 4 1 2 0 2 0 4-1l153-68c3-1 5-5 5-9l0-177c0-3-2-6-5-8-125-58-149-68-154-70 0 0-1-1-2-1z m8 23l136 62 0 159-136-63z m-16 0l0 158-46 22 0-58c0-3-1-6-4-7-1-1-3-1-5-1-2 0-3 0-5 1l-42 20c-3 1-5 4-5 8l0 64-29 14 0-159z m-65 136l0 55c0 3 2 6 5 8l133 64-20 9-141-69 0-56z m73 38l132 60-46 21-127-62z m-103 47l127 61-24 10-132-58z"/>
<glyph unicode="&#57473;" d="M410 92c-3 0-6 1-8 3l-90 90-4-3c-23-18-52-28-83-28-73 0-133 59-133 133 0 73 60 133 133 133 74 0 133-60 133-133 0-31-10-60-28-83l-3-4 90-90c4-5 4-11 0-15-2-2-4-3-7-3z m-185 307c-62 0-112-50-112-112 0-63 50-113 112-113 63 0 113 50 113 113 0 62-50 112-113 112z"/>
<glyph unicode="&#57474;" d="M336 326c6 14 7 24 4 32-2 6-6 9-7 9l-47 22c-1 3-2 9-4 15-1 4-2 6-4 8-2 1-4 2-6 3-4 2-9 4-14 4l-5 0c-6-1-13-3-21-8-2-2-3-4-3-7-1-6-3-12-4-15l-47-22c-1-1-5-3-7-9-3-8-2-19 4-32 11-27 27-79 28-82 0-2 5-22-10-42-20-27-5-91-5-91 1-6 9-16 46-19 11-1 25-1 39 0 0 0 0 0 1 0 39 3 47 13 48 19 1 7 14 65-5 91-14 20-10 41-10 42 2 3 18 55 29 82z m-28-131c13-18 6-63 2-80-1-2-11-11-54-11-43 0-53 9-54 11-4 17-11 62 2 80 18 25 12 52 12 53 0 0-16 55-29 84-7 16-5 23-3 24l49 24c3 1 4 2 4 4 0 0 3 10 4 18 0 2 7 5 14 5 7 0 13-3 14-5 2-9 4-18 4-18 0-2 2-3 3-4l50-24c2-1 4-8-3-24-13-28-29-83-29-84 2-1-4-28 14-53z"/>
<glyph unicode="&#57475;" d="M352 200l-1 169c0 9-5 16-13 20l-28 13c1 6-1 10-4 13-3 3-6 5-10 5l-81 0c-4 0-8-2-10-5-3-3-4-8-3-14l-28-12c-8-4-13-12-13-20l0-169-1 0c-2 0-4-2-4-4l0-24c0-2 2-4 4-4l23 0c-3-17-4-38-4-60 0-3 1-4 3-5 18-8 46-11 75-11 29 0 57 4 75 11 2 0 3 2 3 5 0 22-2 42-4 60l23 0c2 0 4 2 4 4l0 24c-2 2-4 4-6 4z m-9 169l0-169-20 0c-1 5-4 10-5 15-1 4-2 8-3 11l0 30 8 0c2 0 4 2 4 4 0 2-2 4-4 4l-8 0 0 58c0 2-2 4-4 4-2 0-4-1-4-3l-11-69c0-1 0-2 0-2 0-1 28-54 29-140-7-3-15-6-24-7-1 82-17 140-20 148l6 46c0 1 0 2-1 3l-15 24 25 16c1 1 2 2 2 3 0 1 0 2-1 3l-18 18 22 0c2 0 4 1 4 3l4 26 26-12c5-3 8-9 8-14z m-36-100l0-21c-1 3-2 4-3 6z m-23 143c2 0 4-1 5-3 1-2 1-3 1-6l-65 0c-1 3 0 5 1 6 1 2 3 3 5 3-2 0 52 0 53 0z m0-17l-11-16-17-28-17 28-11 16z m-23-52l10 16 18-15-20-13z m9-31l-46 32 18 15z m27 100c2 0 3-1 4-2 1-2 2-4 2-8l-5-30-19 0 2 2 14 22c3 5 3 11 1 15 0 1 1 1 1 1z m-86-2c1 1 3 2 4 2 0 0 1 0 1 0-2-4-2-11 1-15l14-22 2-2-19 0-5 31c0 2 0 4 2 6z m-47-219l20 0-9-15-11 0z m22-80c1 85 29 139 29 140 0 1 1 2 0 2l-11 69c0 2-2 3-4 3-2 0-4-2-4-4l0-58-9 0c-2 0-4-2-4-4 0-2 2-4 4-4l9 0 0-30c-1-3-2-7-3-11-2-4-4-9-5-15l-20 0 0 170c0 6 3 11 8 13l26 11 4-26c0-2 2-3 4-3l22 0-18-18c-1-1-1-2-1-3 0-1 1-2 2-3l65-44-7-45c0-1 0-1 0-2 0 0 6-16 11-41 4-24 10-61 10-106-11-2-24-2-37-2-30 0-55 4-71 11z m19 159l3-16c-1-1-1-3-3-6z m143-94l-11 0-9 15 20 0z m-81 109c3 0 5 2 5 5 0 3-2 5-5 5-3 0-5-2-5-5-1-3 2-5 5-5z m0-22c0 3-2 5-5 5-3 0-5-2-5-5 0-3 2-5 5-5 3-1 5 2 5 5z m2-27c0 3-2 5-5 5-3 0-5-2-5-5 0-4 2-6 5-6 3 0 5 2 5 6z m5-28c0 3-2 5-5 5-3 0-5-2-5-5 0-3 2-5 5-5 3 0 5 3 5 5z m-1-22c-3 0-5-2-5-5 0-3 2-5 5-5 3 0 6 2 6 5 0 3-4 5-6 5z"/>
<glyph unicode="&#57476;" d="M110 337c0-28 9-47 26-58 15-10 32-12 41-12 2 0 4 0 5 0 0 0-3-18 12-37l-1 0c-24 0-101-5-101-68 0-65 71-68 85-68 1 0 2 0 2 0 0 0 1 0 3 0 9 0 33 1 55 11 28 14 43 38 43 71 0 33-22 51-38 66-11 8-19 16-19 23 0 7 6 14 15 20 12 11 24 27 24 57 0 27-3 44-24 56 2 1 10 2 14 2 11 2 29 3 29 13l0 2-84 0c-3 2-87-1-87-78z m136-165c2-26-21-45-53-47-34-2-62 12-63 38-1 12 5 24 15 34 12 10 26 15 42 17 2 0 4 0 7 0 29 0 50-18 52-42z m-23 182c8-28-4-59-23-64-2-1-5-1-7-1-19 0-36 18-43 44-5 14-4 26 1 39 4 11 11 19 21 22 2 1 5 1 7 1 22-1 36-10 44-41z m142-63l0 55-35 0 0-55-56 0 0-35 56 0 0-55 35 0 0 55 55 0 0 35z"/>
<glyph unicode="&#57477;" d="M166 383c0-19-14-35-38-35-23 0-37 16-37 35 0 19 14 35 37 35 25 0 38-16 38-35z m-72-289l0 225 70 0 0-225z m112 154c0 27-1 51-2 71l60 0 3-31 1 0c10 14 32 37 70 37 46 0 81-31 81-98l0-133-70 0 0 125c0 29-10 49-36 49-19 0-30-13-35-26-3-4-3-12-3-18l0-130-69 0z"/>
<glyph unicode="&#57478;" d="M339 303l-60 0 0 30c0 0-4 27 16 27 21 0 40 0 40 0l0 60-68 0c0 0-56 0-56-56 0-13 0-34 0-61l-39 0 0-48 39 0c0-77 0-163 0-163l69 0 0 163 45 0z"/>
<glyph unicode="&#57479;" d="M273 288l23-12 34 12 0 19c0 40-33 73-74 73-40 0-74-33-74-73l0-102c0-9-8-18-17-18-9 0-18 9-18 18l0 43-56 0 0-43c0-40 33-73 74-73 40 0 74 33 74 73l0 102c0 9 8 18 17 18 9 0 17-9 17-18z m91-40l0-43c0-9-9-18-18-18-9 0-17 9-17 18l0 44-34-11-23 11 0-44c0-40 33-73 74-73 40 0 74 33 74 73l0 43z"/>
<glyph unicode="&#57480;" d="M382 329c-9 64-74 97-142 90-55-6-109-50-111-113-1-39 9-67 46-76 15 28-5 34-8 55-13 83 95 139 152 82 40-40 14-164-50-151-61 12 30 111-18 130-40 15-61-48-42-80-11-54-35-105-26-174 31 23 42 66 50 111 16-9 24-20 45-21 73-6 114 74 104 147z"/>
<glyph unicode="&#57481;" d="M420 357c-12-5-25-9-39-10 14 8 25 22 30 37-14-8-28-13-43-16-13 13-30 21-50 21-36 0-67-30-67-67 0-6 1-11 2-16-56 3-106 30-138 71-6-10-10-22-10-34 0-24 13-44 30-56-11 0-21 3-31 8 0 0 0-1 0-1 0-33 24-60 55-66-6-1-12-2-18-2-4 0-8 0-12 1 8-26 34-46 62-47-22-18-52-28-83-28-6 0-12 0-17 1 30-20 66-30 104-30 123 0 191 102 191 191 0 3 0 7 0 9 13 10 25 21 34 34z"/>
<glyph unicode="&#57482;" d="M186 92c-10 0-19 8-19 19l0 290c0 11 8 19 19 19l140 0c10 0 19-8 19-19l0-290c0-11-8-19-19-19z m-3 19c0-1 1-2 3-2l140 0c1 0 3 1 3 2l0 31-146 0z m146 49l0 197-146 0 0-197z m0 213l0 27c0 1-1 2-3 2l-140 0c-1 0-3-1-3-2l0-27z m-65-248c0-7-5-12-12-12-7 0-12 5-12 12 0 7 5 12 12 12 7 0 12-5 12-12z"/>
</font>
</defs>
</svg>
