<?xml version="1.0" encoding="utf-8"?>
<!-- Generator: Adobe Illustrator 18.1.1, SVG Export Plug-In . SVG Version: 6.00 Build 0)  -->
<svg version="1.1" id="Layer_1" xmlns="http://www.w3.org/2000/svg" xmlns:xlink="http://www.w3.org/1fff/xlink" x="0px" y="0px"
	 viewBox="0 0 138.8 45" enable-background="new 0 0 138.8 45" xml:space="preserve">
<g>
	<path fill="#fff" d="M55.8,9.3c0-0.1,0.1-0.1,0.2-0.1c0.1,0,0.1,0,0.2,0.1c0.7,0.7,1.8,0.9,1.8,2c-0.2,2.9-0.5,7.8-0.8,12.2
		c0.9-2,2.1-3.1,3.3-3.1c1.9,0,2.8,2.4,2.8,5c0,3.4-1.4,7.3-4,7.3c-1,0-1.9-0.6-2.5-1.6l-0.1,1.7c0,0.2-0.2,0.3-0.4,0.3
		c-0.3,0-1.6-0.8-1.6-0.9c0-0.1,0-0.2,0-0.3c0.9-5.2,1.1-14.4,1.1-22.3V9.3z M57,26.6c0,0.7-0.1,1.4-0.1,2c0.1,1.9,1.1,3,2.1,3
		c1.4,0,2.2-2.7,2.2-5.1c0-2-0.5-3.8-1.6-3.8C58.6,22.7,57.4,24.3,57,26.6z"/>
	<path fill="#fff" d="M70.9,22.8c0.5,0.1,1.2,0.4,1.2,0.7c0,0.8-0.4,3.4-0.4,5.4c0,1.4,0.2,2.6,0.9,2.6c0.6,0,1.4-0.6,1.7-1.2
		c0.3-0.1,0.4-0.5,0.5-0.5c0.1,0,0.1,0.2,0.1,0.3c0,1.5-1.3,2.8-2.6,2.8c-1.1,0-2.2-1-2.4-3.5c-0.8,2-1.8,3.5-2.9,3.5
		c-1.9,0-2.8-2.1-2.8-4.5c0-3.5,1.7-7.8,4.4-7.8C70,20.5,70.7,21.5,70.9,22.8z M70,23.6c-0.5-0.6-0.9-0.9-1.4-0.9
		c-1.7,0-2.9,4.5-2.9,6.8c0,1.2,0.3,2,0.8,2C68.9,31.4,69.7,25.8,70,23.6z"/>
	<path fill="#fff" d="M78.4,21.6c1.3,0,2.6-0.3,3.6-0.3c0.4,0,0.7,0.1,0.8,0.2c0.3,0.3,0.4,0.5,0.4,0.8c0,0.5-0.5,0.8-0.9,1.2
		c-1.7,0-6.4,5.3-7.2,7.1c2.4-0.4,4.8-0.7,5.9-0.7c0.8,0,1.3,0.8,1.5,1.6c0,0.1,0.6,0.2,0.6,0.6c0,0-0.1,0-0.2,0
		c-1.1,0-6.6,0.7-7.2,0.8c-0.1,0-0.1,0-0.2,0c-0.9,0-1.5-1.1-1.5-1.9c0-1.1,5-6.8,6.6-7.5c-1.9,0.5-3.3,0.8-4.2,0.8
		c-1.4,0-1.9-0.5-1.9-1.3c0-0.6,0.3-1.5,0.9-2.4C76,21.3,77.2,21.6,78.4,21.6z"/>
	<path fill="#fff" d="M89.8,22.8c0.5,0.1,1.2,0.4,1.2,0.7c0,0.8-0.4,3.4-0.4,5.4c0,1.4,0.2,2.6,0.9,2.6c0.6,0,1.4-0.6,1.7-1.2
		c0.3-0.1,0.4-0.5,0.5-0.5c0.1,0,0.1,0.2,0.1,0.3c0,1.5-1.3,2.8-2.6,2.8c-1.1,0-2.2-1-2.4-3.5c-0.8,2-1.8,3.5-2.9,3.5
		c-1.9,0-2.8-2.1-2.8-4.5c0-3.5,1.7-7.8,4.4-7.8C88.9,20.5,89.6,21.5,89.8,22.8z M88.8,23.6c-0.5-0.6-0.9-0.9-1.4-0.9
		c-1.7,0-2.9,4.5-2.9,6.8c0,1.2,0.3,2,0.8,2C87.7,31.4,88.6,25.8,88.8,23.6z"/>
	<path fill="#fff" d="M99.8,22.8c0.5,0.1,1.2,0.4,1.2,0.7c0,0.8-0.4,3.4-0.4,5.4c0,1.4,0.2,2.6,0.9,2.6c1.9,0,2.6-3.6,3-6.8
		c-0.6-0.6-1-1.8-1-2.8c0-1,0.3-1.8,1.1-1.8c0.9,0,1,0.5,1,1.2c0,0.5-0.1,1.2-0.1,1.7c0,0.5,0.1,0.7,0.3,0.7c0.1,0,0.3-0.1,0.6-0.3
		c1-0.6,2.4-2.1,2.7-2.2c0.4,0.1,0.9,0.8,0.9,1.1c0,0.2-0.1,0.4-0.1,0.4s-0.5,1.3-0.7,1.8c-0.6,1.5-0.9,2.8-0.9,3.9
		c0,1.5,0.5,2.4,1.2,2.4c2.1,0,4.1-10.2,4.1-10.6c0.1-0.6,1.3-1.2,1.7-1.2c0.1,0,0.2,0,0.2,0.1c0,0-0.4,1.9-0.4,4c0,2,1.9,5.7,1.9,8
		c0,2-1.5,3-3,3c-1.3,0-2.6-0.8-2.6-2.3c0-0.8,0.4-1.7,0.6-1.7c0,0,0.1,0,0.1,0.1c0,0.1,0,0.3,0,0.4c0,1.3,0.8,2.1,1.6,2.1
		c0.7,0,1.4-0.7,1.4-2.3c0-2.3-1.4-5.4-1.4-6c-0.3,0.6-0.8,2-1.3,3.5c-0.8,2.6-2.1,5.1-3.9,5.1c-1.5,0-2-1.6-2-3.4
		c0-1.8,0.4-3.7,0.7-4.7c-0.5,0.2-1.1,0.3-1.7,0.3c-0.1,0-0.2,0-0.3,0c-0.3,2.6-1.6,7.7-4.2,7.7c-1.1,0-2.2-1-2.4-3.5
		c-0.8,2-1.8,3.5-2.9,3.5c-1.9,0-2.8-2.1-2.8-4.5c0-3.5,1.7-7.8,4.4-7.8C98.9,20.5,99.6,21.5,99.8,22.8z M98.8,23.6
		c-0.5-0.6-0.9-0.9-1.4-0.9c-1.7,0-2.9,4.5-2.9,6.8c0,1.2,0.3,2,0.8,2C97.7,31.4,98.6,25.8,98.8,23.6z"/>
</g>
<path opacity="0.5" fill="none" stroke="#fff" stroke-width="1.095" stroke-linecap="round" stroke-linejoin="round" stroke-miterlimit="10" d="
	M8.8,4.6L3.2,4.3c0,0,1.4,23.1,1.8,33.8c0,0,14.5-2.5,36.4-0.8"/>
<g>
	
		<path fill="none" stroke="#fff" stroke-width="1.095" stroke-linecap="round" stroke-linejoin="round" stroke-miterlimit="10" d="
		M1.1,36.5c0,0,28-0.4,41.6,1"/>
	
		<path fill="none" stroke="#fff" stroke-width="1.095" stroke-linecap="round" stroke-linejoin="round" stroke-miterlimit="10" d="
		M41.5,37.9c3.5-18.5,7.6-26.8,7.6-26.8C35.3,5,8.9,1.7,8.9,1.7L7.4,35.5c0,0,18.2,0,34,2.8L41.5,37.9z"/>
	
		<path fill="none" stroke="#fff" stroke-width="1.095" stroke-linecap="round" stroke-linejoin="round" stroke-miterlimit="10" d="
		M52.8,1l-5.7,1c0,0-2.5,24.2-6,36.9"/>
</g>
<path fill="#fff" d="M17.4,40c-1.2,0-2.2,1-2.2,2.2s1,2.2,2.2,2.2c1.2,0,2.2-1,2.2-2.2S18.6,40,17.4,40z M17.4,43.2
	c-0.5,0-0.9-0.4-0.9-0.9c0-0.5,0.4-0.9,0.9-0.9c0.5,0,0.9,0.4,0.9,0.9C18.3,42.8,17.9,43.2,17.4,43.2z"/>
<path fill="#fff" d="M34.2,39.6c-1.2,0-2.2,1-2.2,2.2s1,2.2,2.2,2.2c1.2,0,2.2-1,2.2-2.2S35.4,39.6,34.2,39.6z M34.2,42.9
	c-0.5,0-0.9-0.4-0.9-0.9c0-0.5,0.4-0.9,0.9-0.9c0.5,0,0.9,0.4,0.9,0.9C35.1,42.5,34.7,42.9,34.2,42.9z"/>
<path fill="#CC4452" d="M28.4,27.4c0.6,0.1,1.4,0,2.2-0.1c1.4-0.1,2.7-0.6,3.7-1.4c1.2-1,2.2-2.6,2.5-4.3h-0.1
	c-0.9,1-2.3,1.6-4.1,1.6c-3.4,0-6-2-5.9-5.7c0-4,2.8-6.6,6.6-6.6c4.8,0,7,3.4,7,7.9c0,3.9-1.5,6.8-3.4,8.6c-1.6,1.5-3.8,2.3-6.2,2.5
	C30,30,28.9,30,28.4,30V27.4z M30.2,17.4c0,1.9,1.3,3.3,3.3,3.3c1.4,0,2.4-0.7,3-1.5c0.2-0.3,0.3-0.7,0.3-1.2
	c0.2-1.9-0.7-4.6-3.3-4.6C31.4,13.4,30.2,15.2,30.2,17.4z"/>
<path fill="#CC4452" d="M13.8,27.4c0.6,0.1,1.4,0,2.2-0.1c1.4-0.1,2.7-0.6,3.7-1.4c1.2-1,2.2-2.6,2.5-4.3h-0.1
	c-0.9,1-2.3,1.6-4.1,1.6c-3.4,0-6-2-5.9-5.7c0-4,2.8-6.6,6.6-6.6c4.8,0,7,3.4,7,7.9c0,3.9-1.5,6.8-3.4,8.6c-1.6,1.5-3.8,2.3-6.2,2.5
	C15.4,30,14.3,30,13.8,30V27.4z M15.6,17.4c0,1.9,1.3,3.3,3.3,3.3c1.4,0,2.4-0.7,3-1.5c0.2-0.3,0.3-0.7,0.3-1.2
	c0.2-1.9-0.7-4.6-3.3-4.6C16.8,13.4,15.6,15.2,15.6,17.4z"/>
<g>
	<path fill="#fff" d="M120.6,31.6c0,0.4-0.3,0.9-0.8,0.9c-0.5,0-0.7-0.3-0.7-0.7c0-0.4,0.3-0.8,0.7-0.8
		C120.4,31,120.6,31.3,120.6,31.6z"/>
	<path fill="#fff" d="M124.2,27.1c0.5,0,0.9,0.4,0.9,1.2c0,0.1,0,0.1,0,0.2c0,0.4-0.3,0.7-0.8,0.7c-0.3,0-0.4-0.1-0.4-0.2
		c0,0,0,0,0,0c0.1,0,0.3-0.5,0.3-0.8c0-0.1,0-0.2-0.1-0.2c-0.7,0-1.4,1.5-1.4,2.7c0,1,0.5,1.5,1,1.5c0.5,0,0.9-0.4,0.9-1.2
		c0-0.3-0.1-0.6-0.2-0.9c0,0,0-0.1,0.2-0.1c0.4,0,0.6,0.6,0.6,1.2c0,1.1-0.7,1.6-1.5,1.6c-0.9,0-1.9-0.8-1.9-2.3
		C122.1,28.9,123,27.1,124.2,27.1z"/>
	<path fill="#fff" d="M132.3,27.5c0.5,0,0.7,0.3,0.7,0.8c0,1.4,0,2.1-0.1,2.6c0.4-0.9,1-3,1.7-3.7c0,0,0.1,0,0.1,0
		c0.1,0,0.6,0.3,0.6,0.4c0,0,0,0,0,0.1c-0.3,0.7-0.4,1.8-0.4,2.6c0,0.7,0.2,1.5,0.6,1.5c0.2,0,0.4-0.1,0.6-0.3c0,0,0,0,0.1,0
		s0,0,0,0c0,0.5-0.5,1-1,1c-1,0-1.1-1.4-1.1-2.4c0-0.4,0-0.8,0-0.9c-0.4,0.6-0.8,2.5-1.1,3.4c0,0.1-0.1,0.1-0.2,0.1h-0.1
		c-0.2,0-0.6,0-0.6-0.2v0c0.1-0.5,0.1-1.8,0.1-2.8c0-0.6,0-1.1-0.1-1.1c-0.3,0-0.8,1.6-1.1,3.7c0,0.3-0.2,0.4-0.4,0.4
		c-0.3,0-0.6-0.2-0.6-0.5c0-0.3,0.4-2.2,0.4-3.2c0-0.4-0.1-0.7-0.2-0.7c-0.2,0-0.2,0.8-1,1.2c0,0.1,0,0.2,0,0.2c0,1.4-0.8,3-1.8,3
		c-1.1,0-1.6-1-1.6-2.2c0-1.5,0.8-3.3,2-3.3c1,0,1,0.7,1,0.9v0.1c-0.2-0.1-0.4-0.1-0.6-0.1c-1.1,0-1.6,1.5-1.6,2.8
		c0,0.8,0.2,1.5,0.7,1.5c0.6,0,1-1.2,1-2.2c0-0.6-0.1-1.1-0.5-1.3c0,0,0.4-0.2,0.7-0.3c0.2,0,0.3,0,0.4,0c1.2,0,1.2-0.9,1.7-0.9
		c0.4,0,0.6,0.6,0.6,1.2c0,0.6-0.1,1.3-0.2,1.8C131.4,28.8,131.8,27.5,132.3,27.5z"/>
</g>
</svg>
